<svg width="556" height="97" viewBox="0 0 556 97" fill="none" xmlns="http://www.w3.org/2000/svg">
<path d="M536.649 71.0264V42.6773H522.628V29.6797H536.649V24.8695H522.628V11.8719H536.649V0.307129H553.228V71.0264H536.649ZM530.201 47.6921L521.195 60.485C511.574 56.8007 505.229 50.1483 501.34 41.7562C497.246 50.6601 490.389 57.5171 479.95 61.4061L471.047 48.5108C487.831 42.882 492.846 29.5773 492.846 16.2727V5.73133H509.732V16.2727C509.732 28.8609 514.338 41.8585 530.201 47.6921ZM505.229 81.8748H555.275V94.8724H488.65V64.9881H505.229V81.8748Z" fill="#121212"/>
<path d="M441.682 0H458.262V96.6121H441.682V0ZM405.964 6.44763C420.702 6.44763 431.652 19.7523 431.652 41.2444C431.652 62.7365 420.702 76.0411 405.964 76.0411C391.227 76.0411 380.276 62.7365 380.276 41.2444C380.276 19.7523 391.227 6.44763 405.964 6.44763ZM405.964 21.4921C400.028 21.4921 396.139 27.735 396.139 41.2444C396.139 54.7537 400.028 60.9966 405.964 60.9966C411.9 60.9966 415.789 54.7537 415.789 41.2444C415.789 27.735 411.9 21.4921 405.964 21.4921Z" fill="#121212"/>
<path d="M331.261 35.6156V2.14936H346.613V92.3139H331.261V48.6132H319.799C314.784 59.871 306.187 69.5936 292.064 77.9858L282.853 66.6257C293.497 60.178 300.456 53.321 304.652 45.3383L285.514 47.3851L283.672 33.6711L309.258 32.6477C309.769 29.7821 310.179 26.8141 310.486 23.7438H288.584V10.7462H326.349C326.349 19.6501 325.735 27.9399 323.995 35.6156H331.261ZM351.423 0.204834H367.082V96.2029H351.423V0.204834Z" fill="#121212"/>
<path d="M210.607 9.21105V59.1546C222.479 58.8476 235.271 57.7218 248.167 55.2656L249.907 68.8772C233.634 72.2546 217.464 73.1757 203.033 73.1757H194.129V9.21105H210.607ZM254.307 0.204834H270.887V96.1006H254.307V0.204834Z" fill="#121212"/>
<path d="M156.27 30.9077V17.296H121.269V30.9077H156.27ZM172.543 4.40076V43.8029H104.996V4.40076H172.543ZM182.47 52.6045V65.6021H164.355V96.3051H147.878V65.6021H130.684V96.3051H114.207V65.6021H95.5807V52.6045H182.47Z" fill="#121212"/>
<path d="M6.03826 9.00632H50.4553C50.4553 39.607 43.803 64.067 9.00622 82.5912L0 70.1053C13.6117 62.7366 22.1062 55.0608 27.3257 45.8499L2.66093 47.9991L0.818746 34.2851L32.2382 32.6476C33.0569 29.3726 33.671 25.7906 33.978 22.0039H6.03826V9.00632ZM65.9091 0.307129H82.4887V96.3052H65.9091V49.4319H50.3529V36.2296H65.9091V0.307129Z" fill="#121212"/>
</svg>
