<svg width="370" height="97" viewBox="0 0 370 97" fill="none" xmlns="http://www.w3.org/2000/svg">
<path d="M326.144 15.556C314.477 15.556 307.927 17.8076 307.927 22.7201C307.927 27.7349 314.477 29.8841 326.144 29.8841C337.812 29.8841 344.361 27.7349 344.361 22.7201C344.361 17.8076 337.812 15.556 326.144 15.556ZM326.144 42.8817C305.062 42.8817 290.836 35.206 290.836 22.7201C290.836 10.3365 305.062 2.66077 326.144 2.66077C347.227 2.66077 361.453 10.3365 361.453 22.7201C361.453 35.206 347.227 42.8817 326.144 42.8817ZM309.36 66.523V81.6698H359.815V94.6674H292.78V66.523H309.36ZM282.648 48.2036H369.64V61.2012H282.648V48.2036Z" fill="#121212"/>
<path d="M196.688 33.8757L191.673 21.5945C207.025 20.878 214.7 17.7054 218.078 14.4304H196.381V2.04688H267.612V14.4304H245.71C248.985 17.7054 256.661 20.878 272.217 21.5945L267.202 33.8757C247.655 32.7499 236.807 27.2233 231.894 19.6499C227.084 27.2233 216.133 32.7499 196.688 33.8757ZM231.792 85.5591C240.389 85.5591 244.073 85.252 244.073 83.6145C244.073 81.8747 240.389 81.5677 231.792 81.5677C223.092 81.5677 219.306 81.8747 219.306 83.6145C219.306 85.252 223.092 85.5591 231.792 85.5591ZM231.792 70.8216C250.316 70.8216 261.267 75.3247 261.267 83.6145C261.267 91.9043 250.316 96.3051 231.792 96.3051C213.063 96.3051 202.112 91.9043 202.112 83.6145C202.112 75.3247 213.063 70.8216 231.792 70.8216ZM240.081 51.3764V57.0053H267.51V69.1841H196.176V57.0053H223.502V51.3764H240.081ZM240.081 36.1272H275.595V48.9201H188.603V36.1272H223.502V28.7585H240.081V36.1272Z" fill="#121212"/>
<path d="M154.019 30.396V23.846H121.474V30.396H154.019ZM170.394 3.07031V43.0866H105.099V3.07031H121.474V11.5648H154.019V3.07031H170.394ZM120.45 68.0583V81.67H171.826V94.6676H103.87V68.0583H120.45ZM94.3525 48.3061H181.344V61.2013H147.571V74.6083H130.991V61.2013H94.3525V48.3061Z" fill="#121212"/>
<path d="M5.52654 9.72262H52.2975C52.2975 40.0163 43.803 63.8623 8.59684 80.6466L0 67.7513C23.846 56.2888 33.2616 42.8819 35.4108 22.7202H5.52654V9.72262ZM64.374 0H80.9536V95.8957H64.374V0Z" fill="#121212"/>
</svg>
