<svg width="60" height="14" viewBox="0 0 60 14" fill="none" xmlns="http://www.w3.org/2000/svg">
<path d="M34.7853 13.3627V13.3266C34.8576 13.3266 34.8998 13.3206 34.93 13.3085C34.9481 13.2905 34.9601 13.2424 34.9601 13.1642V11.7508C34.9601 11.7027 34.9601 11.6726 34.9541 11.6606C34.9481 11.6365 34.936 11.6305 34.924 11.6245H34.8697C34.8456 11.6245 34.8154 11.6245 34.7853 11.6185V11.5944L35.1712 11.4621H35.2495V13.1702C35.2495 13.2243 35.2556 13.2664 35.2616 13.2845C35.2737 13.3085 35.3038 13.3206 35.3641 13.3206V13.3566H34.7853V13.3627ZM35.1953 10.9208C35.1591 10.9449 35.1229 10.9629 35.0807 10.9629C35.0385 10.9629 35.0023 10.9509 34.9662 10.9208C34.93 10.8847 34.9119 10.8426 34.9119 10.7825C34.9119 10.7223 34.93 10.6802 34.9662 10.6442C35.0023 10.6201 35.0385 10.6021 35.0807 10.6021C35.1229 10.6021 35.1591 10.6141 35.1953 10.6442C35.2315 10.6802 35.2495 10.7223 35.2495 10.7825C35.2495 10.8426 35.2315 10.8847 35.1953 10.9208Z" fill="#666666"/>
<path d="M39.241 10.7824C39.2169 10.8005 39.1928 10.8366 39.1747 10.8847C39.03 11.2997 38.8913 11.7207 38.7587 12.1297C38.626 12.5447 38.4994 12.9657 38.3728 13.3867H38.1979L37.5468 11.3839L36.9076 13.3867H36.7328L35.9429 10.9448C35.9248 10.8907 35.9007 10.8486 35.8766 10.8065C35.8464 10.7644 35.7982 10.7464 35.7379 10.7403V10.7043H36.3891V10.7403C36.3348 10.7403 36.2987 10.7464 36.2685 10.7584C36.2444 10.7704 36.2384 10.8125 36.2565 10.8787L36.8835 12.8213L37.4322 11.1193L37.3056 10.8366C37.2875 10.7945 37.2634 10.7704 37.2332 10.7524C37.2031 10.7403 37.1729 10.7343 37.1247 10.7343V10.6982H37.8482V10.7343C37.8241 10.7343 37.8 10.7403 37.7819 10.7403C37.7578 10.7403 37.7397 10.7464 37.7216 10.7584C37.7035 10.7644 37.6915 10.7824 37.6854 10.8005C37.6794 10.8125 37.6794 10.8426 37.6915 10.8727L38.3306 12.8334L38.9396 10.9569C38.9637 10.8907 38.9637 10.8426 38.9516 10.8005C38.9335 10.7644 38.8853 10.7464 38.813 10.7403V10.7043H39.3616V10.7403C39.2953 10.7524 39.2591 10.7644 39.241 10.7824Z" fill="#666666"/>
<path d="M39.5606 12.3401C39.5606 12.4364 39.5727 12.5386 39.5968 12.6349C39.6269 12.7371 39.6631 12.8273 39.7113 12.8995C39.7596 12.9777 39.8259 13.0438 39.9103 13.0919C39.9947 13.134 40.0912 13.1581 40.2118 13.1581C40.26 13.1581 40.3143 13.1521 40.3746 13.1461C40.4289 13.1401 40.4831 13.128 40.5374 13.11C40.5917 13.0919 40.6399 13.0679 40.6821 13.0318C40.7303 13.0077 40.7665 12.9656 40.7967 12.9175L40.8328 12.9777C40.7605 13.116 40.658 13.2182 40.5253 13.2844C40.3927 13.3626 40.248 13.3927 40.0972 13.3927C39.9586 13.3927 39.838 13.3686 39.7415 13.3145C39.639 13.2603 39.5606 13.2002 39.4943 13.11C39.434 13.0258 39.3858 12.9235 39.3496 12.8153C39.3194 12.701 39.3074 12.5807 39.3074 12.4544C39.3074 12.3281 39.3255 12.2078 39.3556 12.0875C39.3918 11.9733 39.44 11.859 39.5063 11.7628C39.5727 11.6665 39.6631 11.5883 39.7656 11.5282C39.8741 11.4741 39.9947 11.438 40.1334 11.438C40.2661 11.438 40.3686 11.462 40.459 11.5162C40.5434 11.5643 40.6158 11.6244 40.6761 11.7026C40.7303 11.7868 40.7725 11.877 40.8027 11.9793C40.8268 12.0755 40.8509 12.1838 40.863 12.292L40.869 12.3341H39.5606V12.3401ZM40.4892 11.9853C40.4711 11.9131 40.4469 11.853 40.4108 11.7989C40.3806 11.7507 40.3324 11.7026 40.2842 11.6725C40.2299 11.6365 40.1696 11.6184 40.0852 11.6184C40.0008 11.6184 39.9284 11.6365 39.8681 11.6665C39.8078 11.6966 39.7536 11.7327 39.7113 11.7928C39.6691 11.841 39.633 11.9011 39.6088 11.9612C39.5847 12.0334 39.5666 12.0996 39.5546 12.1717H40.5072C40.5133 12.1116 40.5072 12.0454 40.4892 11.9853Z" fill="#666666"/>
<path d="M41.2066 13.3623V13.3263C41.2789 13.3263 41.3212 13.3202 41.3453 13.3082C41.3634 13.2842 41.3754 13.236 41.3754 13.1639V10.8183C41.3754 10.7762 41.3754 10.7521 41.3694 10.7341C41.3634 10.716 41.3573 10.698 41.3392 10.698C41.3272 10.692 41.3091 10.692 41.285 10.698C41.2669 10.698 41.2367 10.704 41.2006 10.704V10.6198C41.2186 10.6138 41.2488 10.5957 41.291 10.5837C41.3392 10.5777 41.3814 10.5596 41.4297 10.5476C41.4779 10.5356 41.5201 10.5296 41.5684 10.5236C41.6106 10.5175 41.6407 10.5175 41.6588 10.5236V13.1699C41.6588 13.224 41.6769 13.2661 41.7131 13.2842C41.7432 13.3082 41.7915 13.3202 41.8517 13.3202V13.3563H41.2066V13.3623Z" fill="#666666"/>
<path d="M42.3281 13.3623V13.3263C42.4004 13.3263 42.4426 13.3202 42.4667 13.3082C42.4848 13.2842 42.4969 13.236 42.4969 13.1639V10.8183C42.4969 10.7762 42.4969 10.7521 42.4908 10.7341C42.4848 10.716 42.4788 10.698 42.4667 10.698C42.4486 10.692 42.4306 10.692 42.4064 10.698C42.3883 10.698 42.3582 10.704 42.322 10.704V10.6198C42.3401 10.6138 42.3703 10.5957 42.4125 10.5837C42.4607 10.5777 42.5089 10.5596 42.5511 10.5476C42.5994 10.5356 42.6416 10.5296 42.6898 10.5236C42.7381 10.5175 42.7622 10.5175 42.7803 10.5236V13.1699C42.7803 13.224 42.7983 13.2661 42.8345 13.2842C42.8707 13.3082 42.9129 13.3202 42.9732 13.3202V13.3563H42.3281V13.3623Z" fill="#666666"/>
<path d="M45.1017 13.3327C44.951 13.3808 44.7942 13.4108 44.6254 13.4108C44.4143 13.4108 44.2334 13.3748 44.0646 13.3086C43.9018 13.2364 43.7631 13.1522 43.6426 13.0259C43.528 12.9116 43.4436 12.7673 43.3833 12.5929C43.323 12.4185 43.2928 12.238 43.2928 12.0335C43.2928 11.8411 43.323 11.6546 43.3833 11.4923C43.4436 11.3178 43.534 11.1735 43.6486 11.0532C43.7631 10.9269 43.9079 10.8367 44.0707 10.7585C44.2334 10.6923 44.4143 10.6562 44.6193 10.6562C44.758 10.6562 44.8967 10.6683 45.0354 10.7044C45.0474 10.7104 45.0715 10.7164 45.0957 10.7224C45.1198 10.7284 45.1439 10.7344 45.174 10.7405C45.1982 10.7465 45.2223 10.7525 45.2464 10.7585C45.2705 10.7585 45.2886 10.7645 45.3067 10.7645C45.3549 10.7645 45.3851 10.7405 45.4032 10.6863H45.4454V10.8367C45.4454 10.8848 45.4454 10.9389 45.4454 10.9931C45.4454 11.0472 45.4393 11.1013 45.4393 11.1554C45.4333 11.2036 45.4273 11.2517 45.4152 11.2938C45.3248 11.1434 45.2223 11.0291 45.1077 10.951C44.9992 10.8728 44.8485 10.8307 44.6676 10.8307C44.4927 10.8307 44.342 10.8668 44.2093 10.9269C44.0827 10.9931 43.9742 11.0773 43.8958 11.1855C43.8114 11.2878 43.7511 11.4201 43.7089 11.5644C43.6667 11.7088 43.6486 11.8591 43.6486 12.0155C43.6486 12.1779 43.6667 12.3403 43.7089 12.4726C43.7511 12.6169 43.8174 12.7493 43.9018 12.8515C43.9862 12.9598 44.0948 13.044 44.2214 13.1041C44.354 13.1643 44.5048 13.1943 44.6857 13.1943H44.8907C44.969 13.1883 45.0354 13.1823 45.1077 13.1703C45.1801 13.1643 45.2464 13.1402 45.3127 13.1222C45.379 13.0921 45.4393 13.062 45.4876 13.0139L45.5057 13.0861C45.3911 13.2003 45.2524 13.2845 45.1017 13.3327Z" fill="#666666"/>
<path d="M47.3325 12.9717C47.2481 13.116 47.1336 13.2243 47.0009 13.2904C46.8683 13.3686 46.7236 13.3987 46.5668 13.3987C46.4161 13.4047 46.2714 13.3746 46.1387 13.2964C46.0061 13.2243 45.8975 13.116 45.8071 12.9717C45.7227 12.8213 45.6744 12.6409 45.6744 12.4243C45.6744 12.2078 45.7166 12.0214 45.8071 11.877C45.8975 11.7267 46.0061 11.6184 46.1387 11.5462C46.2714 11.4681 46.4161 11.438 46.5668 11.438C46.7236 11.438 46.8683 11.4741 47.0009 11.5462C47.1336 11.6244 47.2421 11.7327 47.3325 11.877C47.423 12.0274 47.4652 12.2078 47.4652 12.4243C47.4652 12.6409 47.423 12.8273 47.3325 12.9717ZM47.0672 11.9853C47.007 11.865 46.9346 11.7628 46.8442 11.7026C46.7537 11.6425 46.6572 11.6064 46.5547 11.6004C46.4522 11.5944 46.3618 11.6244 46.2714 11.6846C46.1809 11.7387 46.1146 11.8349 46.0603 11.9612C46.0061 12.0815 45.9759 12.2439 45.9819 12.4364C45.988 12.6168 46.0181 12.7672 46.0784 12.8814C46.1387 13.0077 46.2171 13.104 46.3075 13.1641C46.398 13.2243 46.4944 13.2603 46.5909 13.2603C46.6934 13.2664 46.7899 13.2363 46.8743 13.1761C46.9587 13.116 47.0311 13.0258 47.0853 12.8995C47.1456 12.7732 47.1697 12.6168 47.1637 12.4304C47.1577 12.2499 47.1275 12.0996 47.0672 11.9853Z" fill="#666666"/>
<path d="M50.1363 13.3623V13.3262C50.2026 13.3262 50.2448 13.3202 50.2629 13.3022C50.281 13.2781 50.287 13.242 50.287 13.1638V12.1173C50.287 12.0572 50.281 11.9971 50.2689 11.9429C50.2569 11.8888 50.2388 11.8407 50.2087 11.7986C50.1845 11.7505 50.1423 11.7204 50.0941 11.6963C50.0459 11.6663 49.9916 11.6602 49.9253 11.6602C49.8167 11.6602 49.7263 11.6843 49.6479 11.7444C49.5695 11.8046 49.5092 11.8828 49.4791 11.985C49.4731 11.991 49.467 12.0211 49.461 12.0452C49.455 12.0752 49.4489 12.0993 49.4489 12.1053V13.1759C49.4489 13.212 49.455 13.242 49.455 13.2661C49.461 13.2841 49.467 13.3022 49.4791 13.3142C49.4911 13.3202 49.5032 13.3262 49.5273 13.3262H49.6117V13.3623H49.0148V13.3262C49.0811 13.3262 49.1234 13.3202 49.1414 13.3022C49.1595 13.2781 49.1656 13.242 49.1656 13.1638V12.1173C49.1656 12.0632 49.1595 12.0091 49.1475 11.955C49.1354 11.9008 49.1173 11.8527 49.0932 11.8046C49.0691 11.7625 49.0329 11.7264 48.9847 11.7023C48.9425 11.6723 48.8822 11.6663 48.8219 11.6663C48.7133 11.6663 48.6169 11.6903 48.5385 11.7505C48.4601 11.8106 48.3998 11.8888 48.3636 11.991C48.3576 11.9971 48.3516 12.0271 48.3335 12.0512C48.3214 12.0813 48.3214 12.1053 48.3214 12.1113C48.3154 12.2978 48.3154 12.4722 48.3154 12.6466C48.3214 12.821 48.3214 13.0015 48.3214 13.1819C48.3214 13.218 48.3214 13.248 48.3275 13.2721C48.3335 13.2901 48.3395 13.3082 48.3455 13.3142C48.3576 13.3262 48.3697 13.3262 48.3878 13.3322H48.4722V13.3683H47.8752V13.3322C47.9416 13.3322 47.9838 13.3262 48.0079 13.3082C48.026 13.2962 48.038 13.248 48.038 13.1699V11.7384C48.038 11.6963 48.032 11.6723 48.026 11.6542C48.02 11.6422 48.0139 11.6362 48.0019 11.6242C47.9898 11.6242 47.9777 11.6242 47.9597 11.6302C47.9355 11.6302 47.9175 11.6302 47.8873 11.6242V11.5881L48.225 11.4738H48.2973V11.8226C48.3817 11.7084 48.4661 11.6242 48.5626 11.558C48.6591 11.4918 48.7797 11.4558 48.9183 11.4558C48.9726 11.4558 49.0269 11.4678 49.0811 11.4918C49.1354 11.5039 49.1776 11.5339 49.2198 11.57C49.262 11.6061 49.2982 11.6482 49.3223 11.6843C49.3525 11.7324 49.3706 11.7865 49.3826 11.8407C49.4248 11.7565 49.4791 11.6903 49.5514 11.6302C49.6238 11.57 49.7022 11.5279 49.7866 11.4918C49.871 11.4678 49.9614 11.4497 50.0579 11.4558C50.1484 11.4558 50.2328 11.4858 50.3051 11.54C50.3775 11.5821 50.4378 11.6542 50.486 11.7505C50.5282 11.8407 50.5584 11.961 50.5584 12.1113V13.1819C50.5584 13.218 50.5584 13.248 50.5644 13.2721C50.5644 13.2901 50.5765 13.3082 50.5825 13.3142C50.5945 13.3262 50.6066 13.3262 50.6307 13.3322H50.7091V13.3683H50.1363V13.3623Z" fill="#666666"/>
<path d="M53.5128 13.3623V13.3262C53.5792 13.3262 53.6274 13.3202 53.6395 13.3022C53.6575 13.2781 53.6636 13.242 53.6636 13.1638V12.1173C53.6636 12.0572 53.6575 11.9971 53.6455 11.9429C53.6334 11.8888 53.6093 11.8407 53.5852 11.7986C53.5611 11.7505 53.5249 11.7204 53.4767 11.6963C53.4284 11.6663 53.3742 11.6602 53.3078 11.6602C53.1993 11.6602 53.1089 11.6843 53.0305 11.7444C52.9521 11.8046 52.8918 11.8828 52.8556 11.985C52.8496 11.991 52.8436 12.0211 52.8315 12.0452C52.8255 12.0752 52.8195 12.0993 52.8195 12.1053V13.1759C52.8195 13.212 52.8255 13.242 52.8255 13.2661C52.8255 13.2841 52.8375 13.3022 52.8496 13.3142C52.8617 13.3202 52.8737 13.3262 52.8978 13.3262H52.9822V13.3623H52.3853V13.3262C52.4517 13.3262 52.4939 13.3202 52.5119 13.3022C52.53 13.2781 52.5421 13.242 52.5421 13.1638V12.1173C52.5421 12.0632 52.5361 12.0091 52.524 11.955C52.5119 11.9008 52.4939 11.8527 52.4697 11.8046C52.4456 11.7625 52.4094 11.7264 52.3612 11.7023C52.319 11.6723 52.2587 11.6663 52.1984 11.6663C52.0899 11.6663 51.9934 11.6903 51.915 11.7505C51.8366 11.8106 51.7763 11.8888 51.7341 11.991C51.7281 11.9971 51.7221 12.0271 51.71 12.0512C51.698 12.0813 51.698 12.1053 51.698 12.1113C51.6919 12.2978 51.6919 12.4722 51.6919 12.6466C51.698 12.821 51.698 13.0015 51.698 13.1819C51.698 13.218 51.698 13.248 51.704 13.2721C51.71 13.2901 51.7161 13.3082 51.7281 13.3142C51.7402 13.3262 51.7522 13.3262 51.7703 13.3322H51.8487V13.3683H51.2578V13.3322C51.3241 13.3322 51.3663 13.3262 51.3844 13.3082C51.4025 13.2962 51.4085 13.248 51.4085 13.1699V11.7384C51.4085 11.6963 51.4086 11.6723 51.4025 11.6542C51.3965 11.6422 51.3905 11.6362 51.3784 11.6242C51.3663 11.6242 51.3543 11.6242 51.3362 11.6302C51.3181 11.6302 51.294 11.6302 51.2699 11.6242V11.5881L51.6075 11.4738H51.6799V11.8226C51.7583 11.7084 51.8487 11.6242 51.9452 11.558C52.0416 11.4918 52.1622 11.4558 52.3069 11.4558C52.3612 11.4558 52.4155 11.4678 52.4697 11.4918C52.518 11.5039 52.5662 11.5339 52.6084 11.57C52.6446 11.6061 52.6868 11.6482 52.7109 11.6843C52.7411 11.7324 52.7592 11.7865 52.7712 11.8407C52.8134 11.7565 52.8677 11.6903 52.94 11.6302C53.0184 11.57 53.0968 11.5279 53.1812 11.4918C53.2656 11.4678 53.3561 11.4497 53.4525 11.4558C53.543 11.4558 53.6274 11.4858 53.7058 11.54C53.7781 11.5821 53.8384 11.6542 53.8867 11.7505C53.9349 11.8407 53.953 11.961 53.953 12.1113V13.1819C53.953 13.218 53.959 13.248 53.959 13.2721C53.959 13.2901 53.9651 13.3082 53.9771 13.3142C53.9892 13.3262 54.0012 13.3262 54.0193 13.3322H54.1037V13.3683H53.5128V13.3623Z" fill="#666666"/>
<path d="M1.42412 3.0117C1.55676 3.00568 1.73162 2.99967 1.95471 2.98764H2.12354C2.18383 2.98764 2.26221 2.98162 2.35266 2.97561C2.38883 2.96358 2.44913 2.93351 2.53957 2.90945C2.63001 2.87336 2.70237 2.84329 2.7506 2.80119C2.75663 2.80119 2.77472 2.79518 2.79281 2.79518C2.81693 2.78916 2.84707 2.79518 2.87119 2.81322C2.90737 2.82525 2.97369 2.87336 3.08222 2.95155C3.19075 3.02974 3.24502 3.07184 3.25105 3.07785C3.23899 3.17408 3.21487 3.27633 3.18472 3.37857C3.15458 3.48082 3.13649 3.62516 3.13649 3.79357C3.13649 3.92588 3.13046 4.10632 3.1184 4.36493C3.11237 4.61153 3.10031 4.81 3.09428 4.96036C3.08825 5.26108 3.08222 5.54376 3.07016 5.8144C3.05811 6.08505 3.05208 6.2294 3.04002 6.24744C3.00384 6.34968 2.93149 6.40983 2.81693 6.42186C2.7084 6.43389 2.64207 6.40382 2.61795 6.31961C2.61192 6.16324 2.61192 5.95875 2.61192 5.70013C2.61795 5.44753 2.61795 5.23101 2.61795 5.05058C2.61192 4.78594 2.61192 4.5574 2.61795 4.36493C2.62398 4.17247 2.62398 3.96197 2.61795 3.73944C2.61192 3.60111 2.58781 3.49886 2.5456 3.4327C2.50339 3.36654 2.42501 3.33647 2.29839 3.34249C2.28633 3.34249 2.15368 3.33647 1.90647 3.32444C1.65324 3.31241 1.35176 3.33647 0.989993 3.40263C0.91161 3.41466 0.839256 3.43872 0.784991 3.48082C0.730726 3.52292 0.700578 3.54096 0.694549 3.54096C0.688519 3.53495 0.628224 3.49285 0.507635 3.4327C0.393075 3.37256 0.260426 3.27633 0.121748 3.15604C0.0192468 3.06582 -0.0169301 3.00568 0.00718785 2.96358C0.0313058 2.92148 0.0976301 2.90945 0.206161 2.92148C0.344839 2.95155 0.483517 2.96959 0.634254 2.98162C0.784991 2.99967 0.935728 3.00568 1.08647 3.01771H1.42412V3.0117ZM5.2649 6.5241C5.2649 6.63236 5.25284 6.74062 5.22872 6.87294C5.2046 7.00525 5.17445 7.07141 5.13828 7.08946C5.12622 7.09547 5.08401 7.10148 5.01166 7.1075C4.9393 7.11351 4.8971 7.11351 4.87298 7.09547C4.86092 7.08344 4.84283 7.03533 4.81871 6.95113C4.80063 6.86091 4.78857 6.79475 4.78857 6.74062V0.828469C4.78857 0.696153 4.74033 0.575864 4.65592 0.485648C4.56548 0.389418 4.43283 0.317246 4.25797 0.26913C4.1615 0.239058 4.12532 0.190943 4.14341 0.106741C4.1615 0.0225399 4.22782 -0.00753211 4.34238 0.00449668C4.35444 0.00449668 4.46297 0.016526 4.66195 0.0285548C4.86092 0.0405836 5.05386 0.0826834 5.24078 0.136813C5.25284 0.142827 5.28901 0.148842 5.34328 0.154857C5.34328 0.160871 5.33122 0.239058 5.30107 0.389418C5.27093 0.533763 5.25887 0.67811 5.25887 0.828469V6.5241H5.2649Z" fill="#666666"/>
<path d="M8.77404 7.65484H7.53197C7.14608 7.65484 6.89284 7.66085 6.77828 7.66687C6.68181 7.66687 6.60946 7.68491 6.54916 7.73302C6.48887 7.77513 6.45872 7.79918 6.44666 7.81121C6.44063 7.81121 6.36225 7.79317 6.21754 7.73302C6.07283 7.67889 5.90401 7.58868 5.72312 7.45035C5.62062 7.37817 5.59047 7.31803 5.62062 7.2639C5.6568 7.21579 5.72915 7.19173 5.84371 7.21579C6.04268 7.23984 6.20548 7.2639 6.3321 7.26992C6.45872 7.27593 6.63357 7.29397 6.85666 7.31202C6.97122 7.31803 7.71888 7.32405 9.10566 7.32405C10.4864 7.33006 11.2099 7.32405 11.2823 7.31202C11.3969 7.31202 11.4873 7.27593 11.5536 7.20977C11.62 7.14361 11.6501 7.10151 11.6622 7.0955C11.6742 7.10151 11.7707 7.1376 11.9455 7.19173C12.1204 7.24586 12.2711 7.306 12.3917 7.37818C12.452 7.40223 12.4761 7.46839 12.4701 7.55861C12.4581 7.64882 12.4158 7.69694 12.3435 7.70295C12.247 7.70897 12.1566 7.71498 12.0722 7.71498C11.9878 7.71498 11.8853 7.70897 11.7586 7.70295C11.6923 7.69694 11.3969 7.69092 10.8723 7.68491C10.3477 7.67889 9.81714 7.67889 9.26846 7.67889V9.21858C9.26846 9.32083 9.2564 9.42307 9.23228 9.52531C9.20816 9.62756 9.18404 9.6877 9.1539 9.69973C9.14184 9.72379 9.0936 9.73582 9.00919 9.74183C8.92478 9.74785 8.87654 9.74183 8.85845 9.7298C8.85242 9.70575 8.83433 9.68169 8.81022 9.62756C8.7861 9.57343 8.77404 9.52532 8.77404 9.46517V7.65484ZM9.39508 10.9327C9.44934 10.8786 9.47346 10.8425 9.47346 10.8365C9.48552 10.8365 9.58199 10.8545 9.75684 10.9146C9.9317 10.9567 10.0764 11.0169 10.191 11.077C10.2513 11.1131 10.2814 11.1672 10.2694 11.2514C10.2573 11.3296 10.2151 11.3777 10.1427 11.3777C10.0824 11.3838 10.0041 11.3898 9.90758 11.3898H9.57596H7.39329C7.2124 11.3898 7.04961 11.3657 6.91093 11.3056C6.77225 11.2575 6.71799 11.1071 6.75416 10.8545C6.78431 10.5959 6.79637 10.3252 6.77828 10.0606C6.76019 9.79596 6.75416 9.65162 6.75416 9.63357C6.75416 9.49524 6.73607 9.38097 6.70593 9.29075C6.67578 9.19452 6.5371 9.11634 6.29592 9.06221C6.2296 9.05018 6.19945 9.00206 6.21151 8.91786C6.22357 8.83967 6.28386 8.8096 6.38034 8.82163C6.39239 8.82163 6.50092 8.82764 6.69387 8.84569C6.88681 8.85772 7.06167 8.88177 7.21843 8.91185C7.26667 8.91786 7.29682 8.91786 7.32093 8.91786C7.32093 8.92388 7.30887 8.97199 7.29079 9.06221C7.2727 9.15242 7.25461 9.26068 7.25461 9.393C7.25461 9.41104 7.25461 9.59749 7.24858 9.93429C7.24255 10.2711 7.25461 10.5417 7.29079 10.7643C7.29079 10.8846 7.3149 10.9628 7.35108 10.9928C7.38726 11.0109 7.45358 11.0289 7.54402 11.0289C7.56814 11.0289 7.76109 11.0349 8.1108 11.047C8.46654 11.053 8.81022 11.053 9.14184 11.0289C9.26243 11.0229 9.34081 10.9868 9.39508 10.9327ZM10.6673 3.0839C10.6673 3.08991 10.6552 3.16208 10.6311 3.28839C10.607 3.42672 10.5949 3.56505 10.5949 3.70338C10.5949 3.71541 10.5889 3.93794 10.5829 4.35895C10.5708 4.78597 10.5829 5.42951 10.6251 6.28356C10.1488 6.24747 9.6242 6.23544 9.05742 6.24747C8.49065 6.2595 8.18315 6.26551 8.153 6.26551C7.92991 6.26551 7.74903 6.22943 7.62241 6.16928C7.49579 6.10914 7.43549 5.93472 7.45961 5.66407C7.48976 5.28517 7.49579 4.90626 7.4777 4.52134C7.46564 4.1304 7.45961 3.92591 7.45961 3.90186C7.45961 3.78758 7.44755 3.67331 7.41741 3.57106C7.38726 3.46882 7.2727 3.39063 7.07373 3.34252C7.01343 3.31846 6.98931 3.28237 6.99534 3.20419C7.0074 3.126 7.05564 3.09593 7.14608 3.11397C7.15814 3.11397 7.25461 3.11998 7.42946 3.13803C7.61035 3.16208 7.77314 3.18614 7.91785 3.22824C7.92388 3.22824 7.95403 3.23426 8.0083 3.25832C8.0083 3.26433 7.99624 3.32447 7.97212 3.45078C7.948 3.56505 7.93594 3.69135 7.93594 3.81765V4.02816C7.93594 4.16649 7.92991 4.26873 7.92388 4.32286C8.33992 4.3409 8.77404 4.34692 9.21419 4.34091C9.66037 4.33489 9.94979 4.32888 10.1126 4.32286V3.67331C10.1126 3.58309 10.1066 3.48686 10.0885 3.38462C10.0704 3.28237 9.94979 3.19817 9.73273 3.14404C9.6664 3.13201 9.63625 3.08991 9.64228 3.02977C9.65434 2.96962 9.70861 2.94557 9.81111 2.95158C9.82317 2.95158 9.91964 2.95759 10.0885 2.96361C10.2633 2.97564 10.4261 3.00571 10.5769 3.04781L10.6673 3.0839ZM8.85845 5.94675C9.25037 5.96479 9.65434 5.94073 10.0704 5.87458C10.1066 5.60393 10.1246 5.3814 10.1186 5.21901C10.1126 5.06263 10.1126 4.89423 10.1126 4.73184C9.96185 4.72583 9.6664 4.71981 9.22022 4.71981C8.78007 4.7138 8.33992 4.71981 7.92388 4.73184V5.16488C7.92388 5.29719 7.93594 5.44154 7.948 5.60393C7.948 5.75429 7.96609 5.84451 8.0083 5.86856C8.04447 5.89863 8.11683 5.91066 8.22536 5.91066C8.26153 5.91066 8.47257 5.92269 8.85845 5.94675Z" fill="#666666"/>
<path d="M14.08 6.89685C14.1945 6.90286 14.3573 6.92091 14.5623 6.93294C14.7191 6.94496 15.0688 6.94497 15.6115 6.93895C16.1541 6.93895 16.5279 6.92091 16.7329 6.88482C16.8415 6.88482 16.9259 6.86678 16.9862 6.82468C17.0465 6.78859 17.0766 6.76453 17.0827 6.75852C17.0947 6.75852 17.1852 6.78258 17.348 6.82468C17.5107 6.87279 17.6555 6.92692 17.7821 6.98105C17.8303 7.01714 17.8605 7.07127 17.8484 7.14945C17.8363 7.23366 17.8002 7.27576 17.7338 7.28177C17.6374 7.28779 17.553 7.2938 17.4746 7.2938C17.3962 7.2938 17.2997 7.28779 17.1791 7.28177C16.9681 7.26373 16.6425 7.23967 16.2084 7.22163C15.7682 7.2096 15.2075 7.22163 14.5081 7.26373C14.4176 7.26974 14.3453 7.2938 14.291 7.32387C14.2307 7.35996 14.2006 7.38402 14.1885 7.39003C14.1825 7.39003 14.1101 7.36597 13.9775 7.30583C13.8448 7.2517 13.6941 7.15547 13.5132 7.02315C13.4167 6.95699 13.3866 6.89685 13.4228 6.86678C13.4589 6.82468 13.5313 6.81866 13.6398 6.83069C13.8086 6.87279 13.9594 6.89084 14.08 6.89685ZM15.72 6.05483C15.8888 6.05483 16.0275 6.05483 16.136 6.0428C16.4134 6.03679 16.546 6.09693 16.54 6.22324C16.534 6.34954 16.4315 6.4157 16.2385 6.43374C16.0757 6.43976 15.8948 6.44577 15.7019 6.45178C15.509 6.4578 15.3703 6.4578 15.2979 6.45178C15.2316 6.44577 15.1653 6.4157 15.099 6.3736C15.0326 6.32548 14.9362 6.24128 14.7975 6.12701C14.7312 6.06686 14.7131 6.00071 14.7492 5.95259C14.7794 5.90448 14.8698 5.90448 15.0145 5.95259C15.0929 5.98266 15.1532 6.0007 15.2015 6.02476C15.2497 6.04281 15.31 6.04882 15.3823 6.04882H15.72V6.05483Z" fill="#666666"/>
<path d="M14.8639 7.98577C15.0991 7.69708 15.3583 7.55273 15.6478 7.55273C15.9372 7.55273 16.1964 7.69708 16.4316 7.98577C16.6607 8.27446 16.7813 8.6654 16.7813 9.15858C16.7813 9.65777 16.6667 10.0487 16.4316 10.3314C16.1964 10.6201 15.9372 10.7644 15.6478 10.7644C15.3583 10.7644 15.093 10.6201 14.8639 10.3314C14.6288 10.0487 14.5082 9.65777 14.5082 9.15858C14.5142 8.6654 14.6288 8.27446 14.8639 7.98577ZM15.2377 10.0848C15.3463 10.3133 15.4789 10.4276 15.6478 10.4276C15.8166 10.4276 15.9492 10.3133 16.0578 10.0728C16.1663 9.8382 16.2206 9.53748 16.2206 9.15858C16.2206 8.7917 16.1663 8.49098 16.0578 8.2504C15.9492 8.01584 15.8166 7.90157 15.6478 7.90157C15.485 7.90157 15.3463 8.00983 15.2377 8.24439C15.1292 8.47294 15.0749 8.77967 15.0749 9.15858C15.0749 9.54951 15.1292 9.85023 15.2377 10.0848Z" fill="#666666"/>
<path d="M15.4125 4.3468C15.4125 4.23854 15.3944 4.11826 15.3461 3.99797C15.3039 3.87768 15.1713 3.79348 14.9482 3.75138C14.8698 3.72732 14.8397 3.68522 14.8577 3.60703C14.8698 3.52283 14.9361 3.49276 15.0447 3.5108C15.0567 3.5108 15.1592 3.5108 15.3401 3.51682C15.527 3.52884 15.7079 3.5529 15.8828 3.595C15.9189 3.60703 15.9491 3.61906 15.9853 3.63109C15.9853 3.6371 15.9732 3.71529 15.9491 3.85964C15.925 3.99797 15.9129 4.14231 15.9129 4.29869V4.94223C16.4073 4.94223 16.8475 4.94223 17.2394 4.93621C17.6313 4.93621 17.8423 4.9302 17.8665 4.92418C17.981 4.92418 18.0715 4.8881 18.1378 4.81593C18.2041 4.73774 18.2403 4.70767 18.2463 4.70165C18.2584 4.70767 18.3548 4.74375 18.5297 4.79788C18.6985 4.85803 18.8493 4.91817 18.9759 4.99034C19.0362 5.0144 19.0663 5.08056 19.0543 5.17077C19.0482 5.26099 19 5.30911 18.9276 5.31512C18.8312 5.32114 18.7468 5.32715 18.6624 5.32715C18.5779 5.32715 18.4754 5.32114 18.3428 5.31512C18.1981 5.30309 17.4082 5.29106 15.9551 5.27903C14.502 5.27903 13.6458 5.27903 13.3685 5.28505C13.272 5.29708 13.1996 5.32114 13.1393 5.36324C13.0791 5.40534 13.0489 5.42338 13.0429 5.42939C13.0368 5.42939 12.9585 5.41135 12.8138 5.35121C12.669 5.29708 12.5002 5.20686 12.3133 5.06853C12.2108 4.99034 12.1746 4.9302 12.2108 4.88208C12.247 4.82795 12.3193 4.81593 12.4399 4.82795C12.6389 4.86404 12.8017 4.87607 12.9223 4.8881C13.0489 4.89411 13.2238 4.90013 13.4529 4.92418C13.5071 4.92418 13.7242 4.92419 14.1161 4.9302C14.508 4.9302 14.9422 4.93621 15.4185 4.94223V4.3468H15.4125ZM17.8604 3.70326C17.8604 3.78145 17.8182 3.82957 17.7278 3.83558C17.6373 3.84159 17.5529 3.81754 17.4806 3.75138C17.2273 3.50479 16.95 3.29428 16.6425 3.12588C16.335 2.95146 16.0335 2.79509 15.732 2.63871C15.5753 2.77103 15.4125 2.8853 15.2497 2.98153C15.0869 3.08378 14.912 3.18001 14.7372 3.27624C14.5322 3.39051 14.3211 3.49877 14.1041 3.60102C13.893 3.69725 13.688 3.76942 13.5071 3.81753C13.4589 3.82956 13.4227 3.82956 13.3926 3.82956C13.3624 3.82956 13.3323 3.81152 13.3142 3.76942C13.3021 3.72732 13.3082 3.69123 13.3323 3.66116C13.3624 3.61906 13.3986 3.595 13.4469 3.57094C13.8146 3.39051 14.1764 3.18602 14.5201 2.95146C14.8638 2.7169 15.1532 2.5064 15.3883 2.30191C15.5873 2.12749 15.7742 1.94104 15.9551 1.74858C16.136 1.55011 16.2867 1.36366 16.4013 1.18924C16.2385 1.18323 16.0094 1.17722 15.7079 1.16519C15.4125 1.15316 15.105 1.16519 14.7914 1.20729C14.7251 1.2133 14.6648 1.24337 14.6226 1.27345C14.5744 1.30953 14.5563 1.32758 14.5442 1.32758C14.5382 1.32758 14.4658 1.29751 14.3332 1.24939C14.2005 1.20127 14.0679 1.12309 13.9292 1.02084C13.8388 0.942655 13.8146 0.876495 13.8448 0.810337C13.8749 0.744179 13.9413 0.720122 14.0558 0.750194C14.1523 0.762223 14.2247 0.768237 14.2789 0.780266C14.3332 0.780266 14.3995 0.786281 14.4719 0.79831C14.5141 0.804325 14.5623 0.804324 14.6286 0.804324C14.695 0.804324 14.7914 0.810338 14.918 0.816353C15.1773 0.822367 15.3944 0.828382 15.5753 0.828382C15.7501 0.828382 15.9973 0.822368 16.3109 0.79831C16.3892 0.792296 16.4736 0.762223 16.5762 0.720122C16.6787 0.672007 16.7329 0.653964 16.7389 0.647949C16.751 0.647949 16.7992 0.665993 16.8897 0.708093C16.9801 0.756209 17.0525 0.804324 17.1067 0.870482C17.1851 0.930626 17.2153 0.984755 17.2153 1.02686C17.2153 1.07497 17.2032 1.11707 17.167 1.15917C17.1248 1.22533 16.9741 1.41178 16.7028 1.70648C16.4314 1.99517 16.1782 2.24778 15.9431 2.45227C16.0214 2.48836 16.1481 2.53647 16.335 2.59661C16.5159 2.66277 16.7148 2.73494 16.9138 2.81313C17.155 2.90936 17.366 3.00559 17.559 3.11385C17.7459 3.2161 17.8423 3.31233 17.8423 3.40254V3.70326H17.8604Z" fill="#666666"/>
<path d="M25.2527 7.88322C25.1682 7.88322 25.0657 7.8772 24.9391 7.87119C24.7944 7.85916 23.9925 7.84112 22.5394 7.84112C21.0803 7.8351 20.218 7.8351 19.9467 7.84112C19.8502 7.85315 19.7719 7.8772 19.7116 7.9193C19.6513 7.9614 19.6211 7.97945 19.6151 7.99749C19.6091 7.99749 19.5307 7.96742 19.386 7.91329C19.2352 7.86517 19.0724 7.76894 18.8916 7.63061C18.7891 7.55242 18.7529 7.49228 18.7891 7.44417C18.8252 7.39004 18.8976 7.37801 19.0121 7.39004C19.2111 7.42612 19.3739 7.43815 19.5005 7.45018C19.6272 7.45619 19.802 7.46822 20.0311 7.48627C20.1457 7.49228 20.8994 7.4983 22.2862 7.51032C23.679 7.51032 24.4025 7.50431 24.4749 7.48627C24.5894 7.48627 24.6799 7.45018 24.7462 7.38402C24.8065 7.31185 24.8427 7.27576 24.8547 7.26373C24.8668 7.26975 24.9632 7.31185 25.1381 7.37199C25.3129 7.43214 25.4637 7.50431 25.5843 7.56445C25.6506 7.60054 25.6747 7.65467 25.6627 7.73887C25.6506 7.81706 25.6084 7.86517 25.53 7.87119C25.4275 7.8772 25.3371 7.88322 25.2527 7.88322ZM22.7987 10.9325C22.8469 10.8784 22.877 10.8423 22.877 10.8363C22.8891 10.8363 22.9795 10.8543 23.1544 10.9024C23.3232 10.9445 23.4679 10.9987 23.5825 11.0588C23.6488 11.0949 23.685 11.149 23.6729 11.2392C23.6609 11.3235 23.6187 11.3716 23.5463 11.3776C23.48 11.3836 23.4016 11.3896 23.3051 11.3896H22.9735H20.8029C20.616 11.3896 20.4592 11.3595 20.3145 11.3054C20.1698 11.2573 20.1155 11.1069 20.1517 10.8543C20.1939 10.6017 20.2 10.3251 20.1819 10.0243C20.1638 9.72362 20.1517 9.56725 20.1517 9.5492C20.1517 9.44095 20.1397 9.3387 20.1095 9.22443C20.0794 9.11617 19.9467 9.03197 19.6935 8.97784C19.6272 8.96581 19.597 8.91769 19.6091 8.83349C19.6211 8.74929 19.6874 8.72523 19.796 8.73726C19.808 8.73726 19.9105 8.74327 20.1035 8.76132C20.2964 8.76733 20.4652 8.79741 20.628 8.82146C20.6582 8.82748 20.6944 8.83349 20.7426 8.83349C20.7426 8.8395 20.7305 8.89363 20.7064 8.98385C20.6823 9.07407 20.6703 9.18233 20.6703 9.2966C20.6703 9.32066 20.6703 9.51312 20.6642 9.88C20.6582 10.2469 20.6763 10.5356 20.7064 10.7581C20.7064 10.8784 20.7305 10.9566 20.7667 10.9866C20.8089 11.0047 20.8753 11.0227 20.9657 11.0227C20.9898 11.0227 21.1767 11.0287 21.5325 11.0408C21.8822 11.0468 22.2259 11.0468 22.5575 11.0227C22.66 11.0227 22.7444 10.9866 22.7987 10.9325ZM21.1466 5.67593C20.827 5.38123 20.6703 4.99631 20.6703 4.51516C20.6703 4.10618 20.7908 3.76937 21.032 3.51075C21.2732 3.2401 21.5686 3.07771 21.9304 3.00554C21.9063 2.85518 21.8882 2.75895 21.8761 2.71685C21.8701 2.67475 21.8761 2.63866 21.8942 2.60859C21.9304 2.54243 22.0209 2.50635 22.1776 2.50635C22.3344 2.51236 22.4309 2.54845 22.467 2.62062C22.4851 2.65671 22.4912 2.71084 22.4791 2.78902C22.467 2.86721 22.455 2.93938 22.4429 3.01757C22.8047 3.08373 23.1062 3.25213 23.3473 3.51676C23.5945 3.77538 23.7091 4.10618 23.7091 4.51516C23.7091 4.99631 23.5523 5.38123 23.2328 5.67593C22.9132 5.97064 22.5635 6.11499 22.1837 6.11499C21.8159 6.11499 21.4661 5.97064 21.1466 5.67593ZM21.4782 5.42333C21.641 5.6639 21.8822 5.77818 22.1957 5.77818C22.5092 5.77818 22.7504 5.65789 22.9132 5.42333C23.076 5.18877 23.1544 4.88805 23.1544 4.52117C23.1544 4.16031 23.07 3.8656 22.9132 3.62502C22.7504 3.39046 22.5092 3.27619 22.1957 3.27619C21.8822 3.27619 21.641 3.39046 21.4782 3.62502C21.3154 3.8656 21.231 4.16031 21.231 4.52117C21.231 4.88805 21.3154 5.18877 21.4782 5.42333Z" fill="#666666"/>
<path d="M27.9297 4.9606C27.7126 4.95459 27.4534 4.95459 27.1579 4.9606C26.8625 4.9606 26.5731 4.97865 26.2957 5.00872C26.2294 5.00872 26.1691 5.03278 26.1209 5.06285C26.0726 5.10495 26.0425 5.11698 26.0364 5.11698C26.0304 5.11698 25.9761 5.08691 25.8676 5.03879C25.7591 4.98466 25.6325 4.90046 25.4817 4.7922C25.3853 4.71401 25.3491 4.64785 25.3672 4.58771C25.3853 4.52757 25.4576 4.50351 25.5722 4.52757C25.6747 4.55162 25.741 4.55162 25.7711 4.56365C25.8013 4.56365 25.8616 4.56967 25.946 4.57568C25.9882 4.5817 26.0364 4.58771 26.1028 4.58771C26.1631 4.58771 26.2595 4.59373 26.3861 4.61177C26.4826 4.61778 26.6937 4.61778 27.0132 4.61177C27.3388 4.61177 27.6403 4.60575 27.9176 4.59974C27.9176 4.44938 27.9176 4.30503 27.9237 4.1667C27.9297 4.02837 27.9237 3.88403 27.9176 3.73367C27.9116 3.59533 27.8875 3.49309 27.8453 3.42693C27.8091 3.35476 27.7247 3.3307 27.6041 3.33672C27.592 3.33672 27.4473 3.3307 27.182 3.32469C26.9167 3.31867 26.6756 3.33672 26.4645 3.39686C26.3801 3.4149 26.3138 3.44498 26.2595 3.48106C26.1992 3.51715 26.1691 3.53519 26.1691 3.53519C26.1631 3.52918 26.1028 3.48708 25.9822 3.42693C25.8676 3.36679 25.741 3.27056 25.5963 3.15027C25.4938 3.06005 25.4576 2.99991 25.4757 2.95781C25.4938 2.91571 25.5661 2.90368 25.6747 2.91571C25.8073 2.94578 25.952 2.96382 26.1028 2.97585C26.2535 2.9939 26.4042 3.00593 26.555 3.01194H26.7962C26.8685 3.00593 27.0132 2.99991 27.2423 2.98788H27.4112C27.4775 2.98788 27.5498 2.98187 27.6403 2.97585C27.6765 2.96382 27.7368 2.93375 27.8272 2.90368C27.9176 2.86759 27.99 2.83752 28.0382 2.79542C28.0443 2.79542 28.0563 2.78941 28.0865 2.78941C28.1106 2.78339 28.1347 2.78941 28.1648 2.81346C28.201 2.82549 28.2673 2.87361 28.3759 2.95179C28.4844 3.02998 28.5387 3.07208 28.5447 3.0781C28.5326 3.17433 28.5085 3.27657 28.4784 3.37882C28.4482 3.48106 28.4301 3.62541 28.4301 3.79982C28.4301 3.93214 28.4241 4.11257 28.4181 4.36518C28.406 4.61177 28.4 4.81024 28.394 4.9606C28.3879 5.26132 28.3819 5.544 28.3698 5.81465C28.3578 6.09131 28.3518 6.22964 28.3457 6.24768C28.3156 6.34993 28.2372 6.41007 28.1226 6.41609C28.0141 6.42812 27.9418 6.39804 27.9237 6.31384C27.9176 6.15747 27.9176 5.95298 27.9176 5.70037C27.9237 5.44777 27.9237 5.23125 27.9237 5.05082V4.9606H27.9297ZM30.1244 4.63582H29.8652C29.7446 4.63582 29.6421 4.64184 29.5577 4.6659C29.4913 4.67191 29.425 4.68995 29.3768 4.71401C29.3165 4.7501 29.2924 4.76213 29.2863 4.76213C29.2803 4.76213 29.22 4.7501 29.1054 4.73807C28.9909 4.72604 28.8462 4.65387 28.6713 4.53358C28.5809 4.47344 28.5447 4.40728 28.5568 4.34713C28.5688 4.28699 28.6291 4.26293 28.7316 4.27496C28.9547 4.31105 29.1356 4.32308 29.2622 4.32308C29.3888 4.31706 29.5516 4.31706 29.7446 4.31706H30.1244V2.78941C30.1244 2.65107 30.0822 2.5368 29.9918 2.44057C29.9013 2.34434 29.7747 2.27818 29.5938 2.23007C29.4974 2.20601 29.4612 2.14586 29.4793 2.06768C29.4974 1.98348 29.5637 1.95341 29.6782 1.96543C29.6903 1.96543 29.7988 1.97145 30.0038 1.99551C30.2028 2.00753 30.4018 2.04362 30.5827 2.09775C30.5947 2.10377 30.6309 2.11579 30.6852 2.12782C30.6852 2.13384 30.6731 2.21203 30.643 2.35637C30.6128 2.50072 30.6008 2.65107 30.6008 2.80143V8.49707C30.6008 8.59931 30.5887 8.71359 30.5646 8.8459C30.5405 8.97822 30.5103 9.04438 30.4741 9.05641C30.4621 9.06844 30.4199 9.07445 30.3475 9.08648C30.2752 9.09249 30.233 9.08648 30.2088 9.07445C30.1968 9.06242 30.1787 9.00829 30.1606 8.92409C30.1425 8.83989 30.1305 8.77373 30.1305 8.7196V4.63582H30.1244Z" fill="#666666"/>
<path d="M33.4769 9.18845C33.4769 9.29671 33.4648 9.39896 33.4407 9.5012C33.4166 9.60345 33.3864 9.65758 33.3563 9.66961C33.3442 9.68765 33.296 9.69366 33.2176 9.71171C33.1392 9.71772 33.085 9.71171 33.0729 9.69968C33.0608 9.68765 33.0488 9.65156 33.0247 9.60345C33.0005 9.55533 32.9885 9.5012 32.9885 9.42903V7.35406C32.7533 7.34805 32.5544 7.34805 32.3855 7.34805C32.2167 7.35406 32.1021 7.35406 32.0358 7.35406C31.9394 7.36008 31.861 7.39015 31.8007 7.43225C31.7404 7.46834 31.7102 7.49239 31.7042 7.49841C31.6982 7.49841 31.6198 7.46834 31.4751 7.42022C31.3304 7.36609 31.1616 7.26986 30.9807 7.13754C30.8782 7.05936 30.842 6.99921 30.8782 6.94508C30.9143 6.89697 30.9867 6.87892 31.1013 6.89095C31.3002 6.92704 31.463 6.94508 31.5896 6.9511C31.7163 6.95711 31.8911 6.96914 32.1142 6.9932C32.2288 6.99921 32.9463 6.99921 34.2607 7.00523C35.5751 7.01124 36.2625 7.00523 36.3348 6.9932C36.4494 6.9932 36.5398 6.95711 36.6062 6.89095C36.6725 6.82479 36.7026 6.78269 36.7147 6.77668C36.7268 6.78269 36.8232 6.81878 36.9981 6.87892C37.1729 6.93907 37.3237 6.99921 37.4443 7.06537C37.5046 7.10146 37.5287 7.15559 37.5227 7.23979C37.5106 7.33 37.4684 7.3721 37.396 7.38413C37.3056 7.39015 37.2152 7.39616 37.1307 7.39616C37.0463 7.39616 36.9438 7.39015 36.8112 7.38413C36.7629 7.3721 36.6062 7.37211 36.3409 7.36008C36.0695 7.35406 35.744 7.35406 35.3701 7.35406V9.18244C35.3701 9.2907 35.3581 9.39294 35.334 9.49519C35.3098 9.59743 35.2797 9.65156 35.2495 9.66359C35.2375 9.68163 35.1892 9.68765 35.1109 9.70569C35.0325 9.7117 34.9842 9.70569 34.9601 9.69366C34.9541 9.68163 34.936 9.64555 34.9119 9.59743C34.8878 9.54932 34.8757 9.49519 34.8757 9.42302V7.34805C34.6406 7.34805 34.4114 7.34805 34.1703 7.34203C33.9351 7.34203 33.706 7.33602 33.4889 7.33602V9.18845H33.4769ZM35.0867 2.90942C35.1531 2.89138 35.2254 2.84928 35.2978 2.79515C35.3159 2.78312 35.346 2.77711 35.3762 2.78312C35.4003 2.78914 35.4244 2.79515 35.4304 2.79515C35.4847 2.82522 35.551 2.85529 35.6294 2.90942C35.7078 2.95754 35.7681 3.00565 35.8163 3.04775C35.8103 3.05377 35.7982 3.15 35.7741 3.34246C35.75 3.52891 35.7379 3.66724 35.7379 3.73941C35.7319 4.13636 35.7259 4.47918 35.7138 4.7799C35.7138 5.08062 35.7138 5.43547 35.7379 5.85648C35.2194 5.83242 34.6828 5.82641 34.122 5.83242C33.5613 5.84445 33.2658 5.85648 33.2297 5.85648C33.0669 5.85648 32.9161 5.82641 32.7775 5.76626C32.6388 5.70612 32.5845 5.55576 32.6147 5.30315C32.6508 4.99642 32.6569 4.66563 32.6388 4.32281C32.6207 3.97397 32.6147 3.78752 32.6147 3.76948C32.6147 3.57702 32.5966 3.43869 32.5604 3.3605C32.5242 3.28232 32.4519 3.2342 32.3373 3.21616C32.2288 3.20413 32.1745 3.15 32.1805 3.0658C32.1866 2.97558 32.2348 2.92747 32.3373 2.92747L33.2478 2.95754C33.4467 2.96355 33.712 2.96355 34.0497 2.96355C34.3813 2.96355 34.6767 2.96355 34.93 2.95754C34.9662 2.94551 35.0144 2.93348 35.0867 2.90942ZM33.2417 5.4475C33.2839 5.48359 33.3503 5.49561 33.4407 5.4896C33.4528 5.4896 33.6216 5.50163 33.9291 5.52568C34.2426 5.54373 34.6586 5.5317 35.1772 5.46554C35.2375 4.9904 35.2556 4.55135 35.2375 4.12433C35.2134 3.69731 35.1892 3.42666 35.1772 3.29434C34.7853 3.26427 34.3813 3.25826 33.9532 3.26427C33.5251 3.27029 33.2719 3.28232 33.1935 3.30637C33.1814 3.43268 33.1633 3.69731 33.1392 4.10027C33.1151 4.50324 33.1272 4.88214 33.1814 5.23699C33.1814 5.33322 33.1995 5.4054 33.2417 5.4475Z" fill="#666666"/>
<path d="M40.1937 5.71817C40.2299 5.67607 40.2601 5.63397 40.2902 5.59187C40.3505 5.59788 40.459 5.62796 40.6098 5.67006C40.7545 5.71216 40.8871 5.76027 40.9957 5.82042C41.068 5.8565 41.0921 5.91665 41.0801 6.01288C41.068 6.10309 41.0258 6.15121 40.9535 6.16324C40.863 6.16925 40.7786 6.16925 40.6942 6.16925H40.3867L38.4392 6.19331C38.2523 6.19331 38.0955 6.16925 37.9508 6.11512C37.8121 6.06099 37.7578 5.91063 37.794 5.66404C37.8302 5.38738 37.8362 4.99645 37.8181 4.47921C37.8061 3.96798 37.794 3.69132 37.794 3.65524C37.794 3.52292 37.7759 3.41466 37.7458 3.32444C37.7156 3.22821 37.5709 3.16206 37.3177 3.0959C37.2514 3.08387 37.2212 3.03575 37.2393 2.95155C37.2574 2.87336 37.3177 2.84329 37.4262 2.85532C37.4383 2.85532 37.5408 2.86133 37.7277 2.88539C37.9146 2.89742 38.0895 2.92749 38.2462 2.95155C38.2764 2.96358 38.3065 2.96358 38.3487 2.96358C38.3487 2.96959 38.3367 3.01771 38.3186 3.10793C38.3005 3.19814 38.2945 3.3064 38.3005 3.42669C38.3005 3.46879 38.2945 3.77552 38.2884 4.34689C38.2824 4.91224 38.2945 5.29717 38.3306 5.51368C38.3306 5.65202 38.3548 5.72419 38.415 5.74825C38.4753 5.7723 38.5296 5.7723 38.5839 5.7723C38.5959 5.7723 38.7467 5.77832 39.024 5.79636C39.3074 5.80839 39.6149 5.80237 39.9465 5.7723C40.0852 5.78433 40.1576 5.76027 40.1937 5.71817ZM42.497 6.5241C42.497 6.63236 42.4849 6.74062 42.4608 6.87294C42.4367 7.00525 42.4066 7.07141 42.3764 7.08946C42.3644 7.09547 42.3222 7.10148 42.2498 7.1075C42.1774 7.11351 42.1292 7.11351 42.1111 7.09547C42.0991 7.08344 42.081 7.03533 42.0629 6.94511C42.0388 6.86091 42.0327 6.79475 42.0327 6.74062V0.828469C42.0327 0.696153 41.9905 0.575865 41.9001 0.479635C41.8096 0.383404 41.677 0.317246 41.5021 0.26913C41.4057 0.239058 41.3635 0.190943 41.3876 0.106741C41.3996 0.0225399 41.472 -0.00753211 41.5866 0.00449668C41.5986 0.00449668 41.7071 0.016526 41.9061 0.0285548C42.1051 0.0405836 42.298 0.076669 42.4849 0.136813C42.497 0.142827 42.5332 0.148842 42.5874 0.154857C42.5874 0.160871 42.5754 0.239058 42.5452 0.383403C42.5211 0.533763 42.503 0.67811 42.503 0.828469V6.5241H42.497Z" fill="#666666"/>
<path d="M45.0233 4.96042C44.8364 4.95441 44.6314 4.95441 44.4022 4.96042C44.1731 4.96042 43.9319 4.97847 43.6727 5.00854C43.6003 5.00854 43.5461 5.0326 43.4978 5.06267C43.4496 5.10477 43.4255 5.1168 43.4194 5.1168C43.4134 5.1168 43.3591 5.08672 43.2627 5.03861C43.1602 4.98448 43.0335 4.90028 42.8888 4.79202C42.7984 4.71383 42.7622 4.65369 42.7863 4.59354C42.8044 4.5334 42.8707 4.50934 42.9793 4.52738C43.0758 4.54543 43.136 4.55144 43.1662 4.56347C43.1963 4.56347 43.2566 4.56949 43.3471 4.5755C43.3893 4.58151 43.4375 4.58753 43.4918 4.58753C43.5521 4.58753 43.6425 4.59354 43.7752 4.61159C43.8716 4.6176 44.0405 4.6176 44.2816 4.61159C44.5228 4.61159 44.77 4.60557 45.0233 4.59956C45.0233 4.4492 45.0233 4.30485 45.0293 4.16652C45.0293 4.02819 45.0293 3.88384 45.0233 3.73348C45.0172 3.59515 44.9931 3.49291 44.9509 3.42675C44.9087 3.36059 44.8243 3.33052 44.7037 3.33653H44.4203C44.2334 3.33653 44.0525 3.35458 43.8596 3.39066C43.7752 3.40871 43.7088 3.43878 43.6546 3.47486C43.6003 3.51095 43.5702 3.52899 43.5581 3.52899C43.5521 3.52298 43.4918 3.48088 43.3772 3.42073C43.2627 3.36059 43.13 3.26436 42.9853 3.14407C42.8888 3.05386 42.8466 2.99371 42.8707 2.95161C42.8949 2.90951 42.9612 2.89748 43.0697 2.90951C43.2084 2.93958 43.3531 2.95763 43.4978 2.96965C43.6486 2.9877 43.7993 2.99973 43.95 3.00574H44.1369C44.1671 2.99973 44.2394 2.99371 44.348 2.98168H44.5168C44.5831 2.98168 44.6555 2.97567 44.7459 2.96965C44.7821 2.95763 44.8484 2.92756 44.9328 2.9035C45.0293 2.86741 45.0956 2.83734 45.1439 2.79524C45.1559 2.79524 45.168 2.78922 45.1921 2.78922C45.2162 2.78321 45.2403 2.78922 45.2705 2.81328C45.3006 2.82531 45.373 2.87343 45.4755 2.95161C45.584 3.0298 45.6383 3.06589 45.6443 3.0719C45.6323 3.16813 45.6081 3.27038 45.578 3.37262C45.5478 3.47487 45.5358 3.61921 45.5358 3.78761C45.5358 3.91993 45.5298 4.10036 45.5177 4.35898C45.5056 4.60557 45.4996 4.80405 45.4936 4.95441C45.4815 5.25513 45.4755 5.5378 45.4634 5.80845C45.4514 6.0791 45.4453 6.22344 45.4393 6.24149C45.4031 6.34373 45.3308 6.40388 45.2222 6.41591C45.1077 6.42794 45.0414 6.39786 45.0233 6.31366C45.0172 6.15729 45.0112 5.94678 45.0172 5.69418C45.0233 5.44157 45.0233 5.23107 45.0233 5.04462V4.96042ZM46.3317 4.76195C46.2653 4.76195 46.2051 4.77397 46.1568 4.81006C46.1146 4.85216 46.0845 4.86419 46.0724 4.86419C46.0724 4.86419 46.0302 4.85818 45.9639 4.84013C45.8975 4.8281 45.795 4.74992 45.6564 4.62361C45.584 4.56347 45.5599 4.49731 45.572 4.43717C45.584 4.37703 45.6323 4.35297 45.7046 4.37702C45.8734 4.40108 46.0603 4.41913 46.2473 4.41311C46.4402 4.4071 46.6151 4.4071 46.7718 4.41311V3.12603C46.7718 3.01777 46.7417 2.89147 46.6814 2.77118C46.6211 2.63886 46.4824 2.54263 46.2653 2.4885C46.1749 2.46445 46.1387 2.41633 46.1568 2.33814C46.1749 2.25996 46.2292 2.2359 46.3256 2.24793C46.3377 2.24793 46.4402 2.25996 46.6211 2.28401C46.808 2.31409 46.9889 2.34416 47.1637 2.38626C47.212 2.39829 47.2482 2.4043 47.2662 2.4043C47.2662 2.41032 47.2542 2.4885 47.2301 2.62082C47.2059 2.76517 47.1939 2.91553 47.1939 3.0719V8.22624C47.1939 8.32848 47.1818 8.43674 47.1517 8.55102C47.1276 8.65326 47.0914 8.7134 47.0612 8.73746C47.0492 8.74949 47.013 8.76753 46.9648 8.77355C46.9105 8.77956 46.8804 8.77355 46.8562 8.75551C46.8442 8.73746 46.8261 8.69536 46.802 8.6292C46.7839 8.56906 46.7718 8.50892 46.7718 8.45479V4.75593L46.3317 4.76195ZM48.1345 2.67495C48.1345 2.53662 48.0983 2.41633 48.032 2.30807C47.9657 2.19981 47.821 2.1096 47.5979 2.03742C47.5195 2.01938 47.4893 1.97127 47.5074 1.89308C47.5255 1.80888 47.5918 1.78482 47.6883 1.79685C47.7004 1.79685 47.8089 1.80888 48.0018 1.83895C48.2008 1.86301 48.3817 1.89308 48.5626 1.93518C48.6108 1.94721 48.641 1.95322 48.6651 1.95322C48.6651 1.95924 48.647 2.03742 48.6229 2.16974C48.5988 2.31409 48.5807 2.46445 48.5807 2.62082V8.52696C48.5807 8.6292 48.5686 8.74348 48.5385 8.87579C48.5083 9.00811 48.4842 9.07427 48.454 9.0863C48.442 9.10434 48.3998 9.12238 48.3395 9.1284C48.2732 9.13441 48.231 9.1284 48.2129 9.11637C48.2008 9.10434 48.1888 9.05623 48.1646 8.99007C48.1405 8.91188 48.1285 8.83971 48.1285 8.74949V2.67495H48.1345Z" fill="#666666"/>
<path d="M50.673 2.76534C50.6609 2.84352 50.6488 2.9157 50.6368 2.99388C50.9985 3.06004 51.3 3.23446 51.5412 3.49308C51.7824 3.76373 51.903 4.09452 51.903 4.50951C51.903 4.99668 51.7462 5.38761 51.4266 5.68232C51.1131 5.97101 50.7634 6.12137 50.3775 6.12137C49.9977 6.12137 49.6479 5.97101 49.3284 5.68232C49.0148 5.38761 48.8521 4.99668 48.8521 4.50951C48.8521 4.10053 48.9787 3.76373 49.2138 3.49308C49.455 3.22845 49.7504 3.04801 50.1002 2.96381C50.07 2.81947 50.0579 2.72925 50.0519 2.68114C50.0459 2.63903 50.0519 2.59693 50.07 2.55483C50.1062 2.49469 50.2027 2.4586 50.3594 2.47063C50.5162 2.47665 50.6127 2.51875 50.6549 2.58491C50.679 2.62701 50.685 2.68715 50.673 2.76534ZM49.6781 5.41167C49.8529 5.65225 50.0881 5.76652 50.3775 5.76652C50.691 5.76652 50.9322 5.65225 51.095 5.41167C51.2578 5.17711 51.3422 4.87639 51.3422 4.50951C51.3422 4.14263 51.2578 3.84191 51.095 3.60735C50.9322 3.36678 50.691 3.2525 50.3775 3.2525C50.0881 3.2525 49.8529 3.36678 49.6781 3.60735C49.5032 3.84793 49.4188 4.14865 49.4188 4.50951C49.4188 4.87639 49.5093 5.17711 49.6781 5.41167ZM53.9711 8.46097C53.9711 8.56322 53.959 8.67749 53.9349 8.80379C53.9108 8.93611 53.8867 9.00828 53.8505 9.02633C53.8384 9.03234 53.7902 9.03835 53.7178 9.04437C53.6515 9.0564 53.6033 9.05038 53.5792 9.03835C53.5671 9.02031 53.549 8.97219 53.5249 8.88799C53.5068 8.79778 53.5008 8.73162 53.5008 8.67749V2.77135C53.5008 2.63302 53.4525 2.51875 53.3681 2.42252C53.2777 2.32629 53.145 2.2481 52.9642 2.206C52.8737 2.18796 52.8315 2.12781 52.8496 2.04962C52.8677 1.95941 52.934 1.92934 53.0486 1.94738C53.0606 1.94738 53.1752 1.95339 53.3742 1.96542C53.5792 1.97745 53.7721 2.01955 53.953 2.07368C53.9651 2.0797 53.9952 2.08571 54.0555 2.09173C54.0555 2.09774 54.0434 2.18194 54.0133 2.32629C53.9831 2.47063 53.9711 2.61498 53.9711 2.77135V8.46097Z" fill="#666666"/>
<path d="M56.9375 5.36938C56.7385 5.13482 56.4973 4.88221 56.2079 4.60555C56.1657 4.67171 56.1235 4.73787 56.0813 4.80403C56.0391 4.86417 55.9969 4.93033 55.9487 4.98446C55.7557 5.23105 55.5447 5.46561 55.3156 5.68213C55.0864 5.90466 54.8754 6.10314 54.6644 6.26553C54.6161 6.30161 54.5438 6.34973 54.4413 6.40386C54.3448 6.45799 54.2785 6.45799 54.2544 6.40386C54.2303 6.36176 54.2363 6.30763 54.2845 6.2535C54.3328 6.19335 54.375 6.14524 54.4172 6.11517C54.6342 5.92872 54.8392 5.71821 55.0322 5.48365C55.2312 5.24308 55.394 5.02656 55.5266 4.82808C55.6773 4.62359 55.81 4.38302 55.9245 4.10636C56.0391 3.83571 56.1054 3.60115 56.1356 3.39666C56.1476 3.33651 56.1537 3.25231 56.1416 3.15608C56.1295 3.05985 56.0029 2.98768 55.7557 2.92753C55.6653 2.90348 55.6291 2.84935 55.6412 2.77116C55.6532 2.69297 55.7135 2.6629 55.816 2.67493C55.8281 2.67493 55.9426 2.68696 56.1476 2.71102C56.3526 2.73508 56.5154 2.75312 56.63 2.7892C56.7144 2.82529 56.7687 2.85536 56.7928 2.89746C56.8109 2.93956 56.8169 3.00572 56.7988 3.10195C56.7747 3.25231 56.7265 3.44477 56.6421 3.67332C56.5576 3.90187 56.4612 4.13042 56.3346 4.36498C56.4129 4.41911 56.5275 4.50932 56.6903 4.62961C56.8531 4.75591 57.0219 4.88823 57.1907 5.03257C57.3535 5.17692 57.5043 5.31525 57.6309 5.45358C57.7635 5.59191 57.8299 5.70017 57.8299 5.79039V6.26553C57.8299 6.34371 57.7877 6.3798 57.7032 6.3798C57.6188 6.3798 57.5646 6.34973 57.5284 6.28357C57.3415 5.90466 57.1365 5.60394 56.9375 5.36938ZM57.8057 10.2831C57.854 10.229 57.8841 10.1929 57.8841 10.1869C57.8962 10.1929 57.9927 10.223 58.1615 10.2771C58.3303 10.3313 58.475 10.3854 58.5896 10.4455C58.6499 10.4816 58.674 10.5357 58.668 10.6019C58.6619 10.6801 58.6258 10.7162 58.5474 10.7282C58.4871 10.7342 58.4027 10.7402 58.3062 10.7402H57.9746H55.8642C55.6773 10.7402 55.5145 10.7162 55.3759 10.656C55.2372 10.6019 55.1829 10.4576 55.2191 10.205C55.2553 9.94634 55.2673 9.66366 55.2492 9.36294C55.2251 9.06222 55.2191 8.90584 55.2191 8.8878C55.2191 8.74947 55.207 8.6352 55.1769 8.54498C55.1467 8.44875 55.0081 8.37056 54.7609 8.31643C54.6885 8.30441 54.6644 8.25629 54.6764 8.1781C54.6885 8.09991 54.7488 8.07586 54.8513 8.08789C54.8634 8.08789 54.9659 8.0939 55.1648 8.09992C55.3578 8.11195 55.5387 8.136 55.6894 8.16607C55.7195 8.17209 55.7497 8.1781 55.7919 8.1781C55.7919 8.18412 55.7798 8.23223 55.7617 8.32245C55.7437 8.41266 55.7316 8.52092 55.7316 8.64723C55.7316 8.67128 55.7256 8.86374 55.7195 9.23664C55.7135 9.60351 55.7316 9.8922 55.7738 10.1027C55.7738 10.235 55.7979 10.3072 55.8582 10.3313C55.9125 10.3493 55.9668 10.3553 56.021 10.3553C56.0451 10.3553 56.214 10.3613 56.5516 10.3794C56.8893 10.3914 57.2209 10.3854 57.5585 10.3673C57.6671 10.3734 57.7515 10.3373 57.8057 10.2831ZM58.9936 5.14685C58.9634 5.15286 58.9393 5.15888 58.9091 5.15888C58.879 5.16489 58.8247 5.17091 58.7584 5.17692C58.68 5.18895 58.6258 5.21301 58.5835 5.23706C58.5413 5.27315 58.5112 5.28518 58.5052 5.28518C58.4931 5.28518 58.4328 5.27315 58.3182 5.24308C58.2037 5.22504 58.053 5.14685 57.866 5.01453C57.7756 4.95439 57.7394 4.89424 57.7515 4.82808C57.7635 4.76794 57.8299 4.74388 57.9384 4.76193C58.1735 4.79801 58.3544 4.81004 58.469 4.81004C58.5835 4.81004 58.7403 4.82207 58.9393 4.8341H59.0177C59.0358 4.8341 59.0538 4.82808 59.078 4.82207C59.1021 4.82207 59.1322 4.82207 59.1563 4.81606C59.1805 4.81606 59.2227 4.81004 59.283 4.81004V3.72143H59.0056C58.9513 3.72143 58.9152 3.72144 58.8911 3.72745C58.873 3.72745 58.8247 3.73346 58.7584 3.73948C58.6921 3.74549 58.6318 3.76354 58.5835 3.79962C58.5293 3.83571 58.5052 3.84774 58.4991 3.84774C58.4931 3.84774 58.4328 3.84172 58.3122 3.82368C58.1977 3.80564 58.0469 3.72745 57.86 3.59513C57.7696 3.53499 57.7394 3.46883 57.7515 3.40267C57.7635 3.34253 57.8299 3.31246 57.9384 3.33651C58.1675 3.36659 58.3424 3.38463 58.4569 3.38463C58.5655 3.39064 58.7283 3.39064 58.9393 3.39064H59.0538C59.09 3.39064 59.1202 3.39064 59.1503 3.38463H59.2769V0.828512C59.2769 0.696195 59.2347 0.575907 59.1443 0.479677C59.0599 0.383447 58.9272 0.317288 58.7463 0.269173C58.6499 0.239101 58.6137 0.190985 58.6318 0.106784C58.6499 0.0225823 58.7162 -0.0135042 58.8308 0.00453903C58.8428 0.00453903 58.9574 0.0165684 59.1563 0.0285972C59.3613 0.040626 59.5543 0.0767114 59.7352 0.136855C59.7472 0.14287 59.7834 0.148885 59.8377 0.154899C59.8377 0.160913 59.8256 0.2391 59.7955 0.383445C59.7714 0.533805 59.7533 0.678152 59.7533 0.828512V6.50009C59.7533 6.60233 59.7412 6.72262 59.7171 6.84892C59.693 6.97522 59.6628 7.0474 59.6327 7.05943C59.6146 7.06544 59.5724 7.07145 59.5 7.0895C59.4277 7.09551 59.3855 7.0895 59.3614 7.07747C59.3493 7.06544 59.3312 7.01131 59.3071 6.92711C59.289 6.84291 59.2769 6.77074 59.2769 6.71661V5.14685H58.9936Z" fill="#666666"/>
</svg>
