<svg width="113" height="52" viewBox="0 0 113 52" fill="none" xmlns="http://www.w3.org/2000/svg">
<g clip-path="url(#clip0_1911_477)">
<path d="M100.607 0H83.0603C76.3063 0 70.8457 5.41446 70.8457 12.0897C70.8457 18.7649 76.3162 24.1794 83.0603 24.1794H88.5209C90.792 24.1794 92.7965 25.3717 93.9024 27.1603C94.4949 28.1083 94.8405 27.6196 94.8405 27.1603V24.1794V19.0288H83.0603C79.1896 19.0288 76.0397 15.9209 76.0397 12.0799C76.0397 8.24874 79.1797 5.13103 83.0603 5.13103H100.607C104.478 5.13103 107.628 8.23897 107.628 12.0799C107.628 15.9209 104.488 19.0288 100.607 19.0288H97.2103V24.1794H100.617C107.361 24.1794 112.832 18.7649 112.832 12.0897C112.832 5.41446 107.361 0 100.607 0Z" fill="#666666"/>
<path d="M56.9171 51.9218V51.8632C57.0356 51.8632 57.1047 51.8534 57.1541 51.8339C57.1837 51.8045 57.2035 51.7264 57.2035 51.5993V49.3026C57.2035 49.2244 57.2035 49.1755 57.1936 49.156C57.1837 49.1169 57.164 49.1071 57.1442 49.0973H57.0554C57.0159 49.0973 56.9665 49.0973 56.9171 49.0875V49.0484L57.5491 48.8334H57.6774V51.6091C57.6774 51.697 57.6873 51.7654 57.6972 51.7948C57.7169 51.8339 57.7663 51.8534 57.8651 51.8534V51.912H56.9171V51.9218ZM57.5886 47.9538C57.5293 47.9929 57.4701 48.0222 57.401 48.0222C57.3318 48.0222 57.2726 48.0027 57.2133 47.9538C57.1541 47.8952 57.1245 47.8268 57.1245 47.729C57.1245 47.6313 57.1541 47.5629 57.2133 47.5043C57.2726 47.4652 57.3318 47.4358 57.401 47.4358C57.4701 47.4358 57.5293 47.4554 57.5886 47.5043C57.6478 47.5629 57.6774 47.6313 57.6774 47.729C57.6774 47.8268 57.6478 47.8952 57.5886 47.9538Z" fill="#666666"/>
<path d="M64.2143 47.729C64.1748 47.7583 64.1353 47.817 64.1057 47.8952C63.8687 48.5695 63.6416 49.2537 63.4244 49.9183C63.2071 50.5926 62.9998 51.2768 62.7924 51.9609H62.506L61.4396 48.7064L60.3929 51.9609H60.1066L58.813 47.9929C58.7834 47.9049 58.7439 47.8365 58.7044 47.7681C58.655 47.6997 58.576 47.6704 58.4773 47.6606V47.602H59.5437V47.6606C59.4549 47.6606 59.3956 47.6704 59.3462 47.6899C59.3067 47.7095 59.2969 47.7779 59.3265 47.8854L60.3534 51.0422L61.252 48.2763L61.0446 47.817C61.015 47.7486 60.9755 47.7095 60.9261 47.6801C60.8768 47.6606 60.8274 47.6508 60.7484 47.6508V47.5922H61.9333V47.6508C61.8938 47.6508 61.8543 47.6606 61.8247 47.6606C61.7852 47.6606 61.7556 47.6704 61.726 47.6899C61.6963 47.6997 61.6766 47.729 61.6667 47.7583C61.6568 47.7779 61.6568 47.8267 61.6766 47.8756L62.7233 51.0617L63.7206 48.0124C63.7601 47.9049 63.7601 47.8267 63.7403 47.7583C63.7107 47.6997 63.6317 47.6704 63.5132 47.6606V47.602H64.4118V47.6606C64.3032 47.6801 64.2439 47.6997 64.2143 47.729Z" fill="#666666"/>
<path d="M64.7376 50.2603C64.7376 50.4167 64.7574 50.5828 64.7968 50.7392C64.8462 50.9054 64.9055 51.052 64.9845 51.1692C65.0635 51.2963 65.1721 51.4038 65.3103 51.482C65.4486 51.5504 65.6065 51.5895 65.804 51.5895C65.883 51.5895 65.9719 51.5797 66.0706 51.57C66.1595 51.5602 66.2484 51.5406 66.3372 51.5113C66.4261 51.482 66.5051 51.4429 66.5742 51.3843C66.6532 51.3452 66.7125 51.2768 66.7618 51.1986L66.8211 51.2963C66.7026 51.5211 66.5347 51.6872 66.3175 51.7947C66.1003 51.9218 65.8633 51.9707 65.6164 51.9707C65.3893 51.9707 65.1918 51.9316 65.0338 51.8436C64.866 51.7556 64.7376 51.6579 64.629 51.5113C64.5302 51.3745 64.4512 51.2083 64.392 51.0324C64.3426 50.8467 64.3229 50.6513 64.3229 50.446C64.3229 50.2408 64.3525 50.0453 64.4019 49.8498C64.4611 49.6641 64.5401 49.4784 64.6487 49.3221C64.7573 49.1657 64.9055 49.0386 65.0733 48.9409C65.2511 48.853 65.4486 48.7943 65.6757 48.7943C65.8929 48.7943 66.0608 48.8334 66.2089 48.9214C66.3471 48.9996 66.4656 49.0973 66.5644 49.2243C66.6532 49.3612 66.7224 49.5078 66.7717 49.6739C66.8112 49.8303 66.8507 50.0062 66.8705 50.1821L66.8803 50.2505H64.7376V50.2603ZM66.2583 49.6837C66.2286 49.5664 66.1891 49.4687 66.1299 49.3807C66.0805 49.3025 66.0015 49.2243 65.9225 49.1755C65.8337 49.1168 65.7349 49.0875 65.5967 49.0875C65.4584 49.0875 65.3399 49.1168 65.2412 49.1657C65.1424 49.2146 65.0536 49.2732 64.9845 49.3709C64.9153 49.4491 64.8561 49.5469 64.8166 49.6446C64.7771 49.7619 64.7475 49.8694 64.7277 49.9867H66.2879C66.2978 49.8889 66.2879 49.7814 66.2583 49.6837Z" fill="#666666"/>
<path d="M67.4333 51.9218V51.8632C67.5518 51.8632 67.6209 51.8534 67.6604 51.8338C67.69 51.7947 67.7098 51.7166 67.7098 51.5993V47.7877C67.7098 47.7192 67.7098 47.6801 67.6999 47.6508C67.69 47.6215 67.6802 47.5922 67.6505 47.5922C67.6308 47.5824 67.6012 47.5824 67.5617 47.5922C67.532 47.5922 67.4827 47.602 67.4234 47.602V47.4651C67.4531 47.4554 67.5024 47.426 67.5715 47.4065C67.6505 47.3967 67.7197 47.3674 67.7987 47.3478C67.8777 47.3283 67.9468 47.3185 68.0258 47.3088C68.0949 47.299 68.1443 47.299 68.1739 47.3088V51.609C68.1739 51.697 68.2035 51.7654 68.2628 51.7947C68.3121 51.8338 68.3911 51.8534 68.4899 51.8534V51.912H67.4333V51.9218Z" fill="#666666"/>
<path d="M69.2699 51.9218V51.8632C69.3884 51.8632 69.4575 51.8534 69.497 51.8338C69.5266 51.7947 69.5464 51.7166 69.5464 51.5993V47.7877C69.5464 47.7192 69.5464 47.6801 69.5365 47.6508C69.5266 47.6215 69.5168 47.5922 69.497 47.5922C69.4674 47.5824 69.4378 47.5824 69.3983 47.5922C69.3686 47.5922 69.3193 47.602 69.26 47.602V47.4651C69.2896 47.4554 69.339 47.426 69.4081 47.4065C69.4871 47.3967 69.5661 47.3674 69.6353 47.3478C69.7143 47.3283 69.7834 47.3185 69.8624 47.3088C69.9414 47.299 69.9809 47.299 70.0105 47.3088V51.609C70.0105 51.697 70.0401 51.7654 70.0993 51.7947C70.1586 51.8338 70.2277 51.8534 70.3265 51.8534V51.912H69.2699V51.9218Z" fill="#666666"/>
<path d="M73.8122 51.8729C73.5653 51.9511 73.3086 52 73.0321 52C72.6865 52 72.3903 51.9414 72.1138 51.8339C71.8472 51.7166 71.6201 51.5797 71.4226 51.3745C71.235 51.1888 71.0967 50.9542 70.998 50.6708C70.8992 50.3874 70.8499 50.0942 70.8499 49.7619C70.8499 49.4491 70.8992 49.1462 70.998 48.8823C71.0967 48.5989 71.2448 48.3643 71.4325 48.1688C71.6201 47.9636 71.8571 47.817 72.1237 47.6899C72.3903 47.5824 72.6865 47.5238 73.0222 47.5238C73.2493 47.5238 73.4765 47.5433 73.7036 47.602C73.7233 47.6117 73.7628 47.6215 73.8023 47.6313C73.8418 47.6411 73.8813 47.6508 73.9307 47.6606C73.9702 47.6704 74.0097 47.6802 74.0492 47.6899C74.0887 47.6899 74.1183 47.6997 74.1479 47.6997C74.2269 47.6997 74.2763 47.6606 74.3059 47.5727H74.375V47.817C74.375 47.8952 74.375 47.9831 74.375 48.0711C74.375 48.1591 74.3651 48.247 74.3651 48.335C74.3553 48.4132 74.3454 48.4914 74.3257 48.5598C74.1775 48.3154 74.0097 48.1297 73.8221 48.0027C73.6443 47.8756 73.3975 47.8072 73.1012 47.8072C72.8149 47.8072 72.568 47.8659 72.3508 47.9636C72.1434 48.0711 71.9657 48.2079 71.8373 48.3838C71.6991 48.55 71.6003 48.765 71.5312 48.9996C71.4621 49.2341 71.4325 49.4785 71.4325 49.7326C71.4325 49.9965 71.4621 50.2603 71.5312 50.4754C71.6003 50.7099 71.7089 50.9249 71.8472 51.0911C71.9854 51.267 72.1632 51.4038 72.3705 51.5016C72.5878 51.5993 72.8346 51.6482 73.1308 51.6482H73.4666C73.5949 51.6384 73.7036 51.6286 73.8221 51.6091C73.9405 51.5993 74.0492 51.5602 74.1578 51.5309C74.2664 51.482 74.3651 51.4331 74.4441 51.355L74.4738 51.4722C74.2861 51.6579 74.059 51.7948 73.8122 51.8729Z" fill="#666666"/>
<path d="M77.4657 51.2865C77.3275 51.5211 77.1398 51.697 76.9226 51.8045C76.7054 51.9316 76.4684 51.9804 76.2116 51.9804C75.9648 51.9902 75.7278 51.9413 75.5106 51.8143C75.2933 51.697 75.1156 51.5211 74.9675 51.2865C74.8292 51.0422 74.7502 50.749 74.7502 50.3971C74.7502 50.0453 74.8194 49.7423 74.9675 49.5078C75.1156 49.2634 75.2933 49.0875 75.5106 48.9702C75.7278 48.8432 75.9648 48.7943 76.2116 48.7943C76.4684 48.7943 76.7054 48.853 76.9226 48.9702C77.1398 49.0973 77.3176 49.2732 77.4657 49.5078C77.6138 49.7521 77.6829 50.0453 77.6829 50.3971C77.6829 50.749 77.6138 51.052 77.4657 51.2865ZM77.0312 49.6837C76.9325 49.4882 76.814 49.3221 76.6659 49.2243C76.5178 49.1266 76.3598 49.068 76.1919 49.0582C76.024 49.0484 75.8759 49.0973 75.7278 49.195C75.5797 49.283 75.4711 49.4394 75.3822 49.6446C75.2933 49.8401 75.244 50.1039 75.2538 50.4167C75.2637 50.7099 75.3131 50.9542 75.4118 51.1399C75.5106 51.3452 75.6389 51.5015 75.787 51.5993C75.9352 51.697 76.0932 51.7556 76.2511 51.7556C76.419 51.7654 76.577 51.7166 76.7152 51.6188C76.8535 51.5211 76.972 51.3745 77.0608 51.1692C77.1596 50.964 77.1991 50.7099 77.1892 50.4069C77.1793 50.1137 77.13 49.8694 77.0312 49.6837Z" fill="#666666"/>
<path d="M82.0573 51.9218V51.8632C82.1659 51.8632 82.235 51.8534 82.2646 51.8241C82.2943 51.785 82.3041 51.7264 82.3041 51.5993V49.8987C82.3041 49.801 82.2943 49.7033 82.2745 49.6153C82.2548 49.5273 82.2252 49.4492 82.1758 49.3807C82.1363 49.3026 82.0672 49.2537 81.9882 49.2146C81.9092 49.1657 81.8203 49.156 81.7117 49.156C81.5339 49.156 81.3858 49.1951 81.2575 49.2928C81.1291 49.3905 81.0304 49.5176 80.981 49.6837C80.9711 49.6935 80.9612 49.7424 80.9514 49.7815C80.9415 49.8303 80.9316 49.8694 80.9316 49.8792V51.6189C80.9316 51.6775 80.9415 51.7264 80.9415 51.7655C80.9514 51.7948 80.9612 51.8241 80.981 51.8436C81.0007 51.8534 81.0205 51.8632 81.06 51.8632H81.1982V51.9218H80.2207V51.8632C80.3293 51.8632 80.3984 51.8534 80.428 51.8241C80.4576 51.785 80.4675 51.7264 80.4675 51.5993V49.8987C80.4675 49.8108 80.4576 49.7228 80.4379 49.6349C80.4181 49.5469 80.3885 49.4687 80.349 49.3905C80.3095 49.3221 80.2503 49.2635 80.1713 49.2244C80.1022 49.1755 80.0034 49.1657 79.9047 49.1657C79.7269 49.1657 79.569 49.2048 79.4406 49.3026C79.3122 49.4003 79.2135 49.5273 79.1542 49.6935C79.1444 49.7033 79.1345 49.7521 79.1049 49.7912C79.0851 49.8401 79.0851 49.8792 79.0851 49.889C79.0752 50.1919 79.0752 50.4754 79.0752 50.7588C79.0851 51.0422 79.0851 51.3354 79.0851 51.6286C79.0851 51.6873 79.0851 51.7361 79.095 51.7752C79.1049 51.8045 79.1147 51.8339 79.1246 51.8436C79.1444 51.8632 79.1641 51.8632 79.1937 51.873H79.332V51.9316H78.3544V51.873C78.463 51.873 78.5321 51.8632 78.5716 51.8339C78.6013 51.8143 78.621 51.7361 78.621 51.6091V49.283C78.621 49.2146 78.6111 49.1755 78.6013 49.1462C78.5914 49.1266 78.5815 49.1169 78.5618 49.0973C78.542 49.0973 78.5223 49.0973 78.4926 49.1071C78.4531 49.1071 78.4235 49.1071 78.3742 49.0973V49.0387L78.9271 48.853H79.0456V49.4198C79.1839 49.2341 79.3221 49.0973 79.4801 48.9898C79.6381 48.8823 79.8356 48.8237 80.0627 48.8237C80.1515 48.8237 80.2404 48.8432 80.3293 48.8823C80.4181 48.9019 80.4873 48.9507 80.5564 49.0094C80.6255 49.068 80.6848 49.1364 80.7243 49.1951C80.7736 49.2732 80.8032 49.3612 80.823 49.4492C80.8921 49.3123 80.981 49.2048 81.0995 49.1071C81.218 49.0094 81.3463 48.9409 81.4846 48.8823C81.6228 48.8432 81.7709 48.8139 81.9289 48.8237C82.077 48.8237 82.2153 48.8725 82.3338 48.9605C82.4523 49.0289 82.551 49.1462 82.63 49.3026C82.6991 49.4492 82.7485 49.6446 82.7485 49.889V51.6286C82.7485 51.6873 82.7485 51.7361 82.7584 51.7752C82.7584 51.8045 82.7781 51.8339 82.788 51.8436C82.8077 51.8632 82.8275 51.8632 82.867 51.873H82.9954V51.9316H82.0573V51.9218Z" fill="#666666"/>
<path d="M87.5869 51.9218V51.8632C87.6956 51.8632 87.7746 51.8534 87.7943 51.8241C87.8239 51.785 87.8338 51.7264 87.8338 51.5993V49.8987C87.8338 49.801 87.8239 49.7033 87.8042 49.6153C87.7844 49.5273 87.7449 49.4492 87.7054 49.3807C87.6659 49.3026 87.6067 49.2537 87.5277 49.2146C87.4487 49.1657 87.3598 49.156 87.2512 49.156C87.0735 49.156 86.9254 49.1951 86.797 49.2928C86.6686 49.3905 86.5699 49.5176 86.5106 49.6837C86.5008 49.6935 86.4909 49.7424 86.4711 49.7815C86.4613 49.8303 86.4514 49.8694 86.4514 49.8792V51.6189C86.4514 51.6775 86.4613 51.7264 86.4613 51.7655C86.4613 51.7948 86.481 51.8241 86.5008 51.8436C86.5205 51.8534 86.5403 51.8632 86.5798 51.8632H86.718V51.9218H85.7404V51.8632C85.849 51.8632 85.9182 51.8534 85.9478 51.8241C85.9774 51.785 85.9972 51.7264 85.9972 51.5993V49.8987C85.9972 49.8108 85.9873 49.7228 85.9675 49.6349C85.9478 49.5469 85.9182 49.4687 85.8787 49.3905C85.8392 49.3221 85.7799 49.2635 85.7009 49.2244C85.6318 49.1755 85.5331 49.1657 85.4343 49.1657C85.2566 49.1657 85.0986 49.2048 84.9702 49.3026C84.8419 49.4003 84.7431 49.5273 84.674 49.6935C84.6641 49.7033 84.6542 49.7521 84.6345 49.7912C84.6147 49.8401 84.6148 49.8792 84.6148 49.889C84.6049 50.1919 84.6049 50.4754 84.6049 50.7588C84.6148 51.0422 84.6148 51.3354 84.6148 51.6286C84.6148 51.6873 84.6148 51.7361 84.6246 51.7752C84.6345 51.8045 84.6444 51.8339 84.6641 51.8436C84.6839 51.8632 84.7036 51.8632 84.7332 51.873H84.8616V51.9316H83.8939V51.873C84.0025 51.873 84.0717 51.8632 84.1013 51.8339C84.1309 51.8143 84.1408 51.7361 84.1408 51.6091V49.283C84.1408 49.2146 84.1408 49.1755 84.1309 49.1462C84.121 49.1266 84.1112 49.1169 84.0914 49.0973C84.0717 49.0973 84.0519 49.0973 84.0223 49.1071C83.9927 49.1071 83.9532 49.1071 83.9137 49.0973V49.0387L84.4666 48.853H84.5851V49.4198C84.7135 49.2341 84.8616 49.0973 85.0196 48.9898C85.1776 48.8823 85.3751 48.8237 85.6121 48.8237C85.7009 48.8237 85.7898 48.8432 85.8787 48.8823C85.9577 48.9019 86.0367 48.9507 86.1058 49.0094C86.165 49.068 86.2341 49.1364 86.2736 49.1951C86.323 49.2732 86.3526 49.3612 86.3724 49.4492C86.4415 49.3123 86.5304 49.2048 86.6489 49.1071C86.7772 49.0094 86.9056 48.9409 87.0438 48.8823C87.1821 48.8432 87.3302 48.8139 87.4882 48.8237C87.6363 48.8237 87.7746 48.8725 87.9029 48.9605C88.0214 49.0289 88.1202 49.1462 88.1991 49.3026C88.2781 49.4492 88.3078 49.6446 88.3078 49.889V51.6286C88.3078 51.6873 88.3176 51.7361 88.3176 51.7752C88.3176 51.8045 88.3275 51.8339 88.3473 51.8436C88.367 51.8632 88.3868 51.8632 88.4164 51.873H88.5546V51.9316H87.5869V51.9218Z" fill="#666666"/>
<path d="M2.28224 35.1018C2.49948 35.0921 2.78584 35.0823 3.15119 35.0627H3.42767C3.52642 35.0627 3.65478 35.053 3.8029 35.0432C3.86214 35.0236 3.96089 34.9748 4.109 34.9357C4.25712 34.877 4.37561 34.8282 4.45461 34.7598C4.46448 34.7598 4.4941 34.75 4.52373 34.75C4.56322 34.7402 4.6126 34.75 4.65209 34.7793C4.71134 34.7989 4.81996 34.877 4.9977 35.0041C5.17543 35.1311 5.2643 35.1996 5.27418 35.2093C5.25443 35.3657 5.21493 35.5319 5.16556 35.698C5.11619 35.8641 5.08657 36.0987 5.08657 36.3724C5.08657 36.5874 5.07669 36.8806 5.05694 37.3008C5.04707 37.7015 5.02732 38.0241 5.01745 38.2684C5.00757 38.7571 4.9977 39.2164 4.97795 39.6562C4.9582 40.096 4.94832 40.3306 4.92858 40.3599C4.86933 40.5261 4.75084 40.6238 4.56322 40.6433C4.38549 40.6629 4.27687 40.614 4.23737 40.4772C4.2275 40.2231 4.2275 39.8908 4.2275 39.4705C4.23737 39.06 4.23737 38.7082 4.23737 38.415C4.2275 37.985 4.2275 37.6136 4.23737 37.3008C4.24724 36.9881 4.24724 36.646 4.23737 36.2844C4.2275 36.0596 4.188 35.8935 4.11888 35.786C4.04976 35.6785 3.92139 35.6296 3.71403 35.6394C3.69428 35.6394 3.47704 35.6296 3.07219 35.61C2.65747 35.5905 2.16375 35.6296 1.57129 35.7371C1.44292 35.7566 1.32443 35.7957 1.23556 35.8642C1.14669 35.9326 1.09732 35.9619 1.08745 35.9619C1.07757 35.9521 0.978828 35.8837 0.781341 35.786C0.593728 35.6882 0.376492 35.5319 0.149381 35.3364C-0.0184829 35.1898 -0.0777291 35.0921 -0.0382316 35.0236C0.00126583 34.9552 0.109884 34.9357 0.287623 34.9552C0.514733 35.0041 0.741843 35.0334 0.988703 35.053C1.23556 35.0823 1.48242 35.0921 1.72928 35.1116H2.28224V35.1018ZM8.57222 40.8095C8.57222 40.9854 8.55247 41.1613 8.51297 41.3763C8.47347 41.5914 8.4241 41.6989 8.36486 41.7282C8.34511 41.738 8.27599 41.7477 8.15749 41.7575C8.039 41.7673 7.96988 41.7673 7.93038 41.738C7.91064 41.7184 7.88101 41.6402 7.84151 41.5034C7.81189 41.3568 7.79214 41.2493 7.79214 41.1613V31.5541C7.79214 31.3391 7.71315 31.1436 7.57491 30.997C7.42679 30.8406 7.20955 30.7233 6.9232 30.6452C6.76521 30.5963 6.70596 30.5181 6.73558 30.3813C6.76521 30.2444 6.87383 30.1956 7.06144 30.2151C7.08119 30.2151 7.25893 30.2347 7.58478 30.2542C7.91063 30.2738 8.22661 30.3422 8.53272 30.4301C8.55247 30.4399 8.61172 30.4497 8.70058 30.4595C8.70058 30.4692 8.68084 30.5963 8.63146 30.8406C8.58209 31.0752 8.56234 31.3097 8.56234 31.5541V40.8095H8.57222Z" fill="#666666"/>
<path d="M14.3191 42.6469H12.2849C11.653 42.6469 11.2383 42.6566 11.0507 42.6664C10.8927 42.6664 10.7742 42.6957 10.6754 42.7739C10.5767 42.8423 10.5273 42.8814 10.5076 42.901C10.4977 42.901 10.3693 42.8716 10.1323 42.7739C9.89535 42.6859 9.61887 42.5393 9.32264 42.3146C9.15478 42.1973 9.1054 42.0995 9.15478 42.0116C9.21402 41.9334 9.33251 41.8943 9.52013 41.9334C9.84598 41.9725 10.1126 42.0116 10.32 42.0214C10.5273 42.0311 10.8137 42.0604 11.179 42.0898C11.3666 42.0995 12.5911 42.1093 14.8622 42.1093C17.1234 42.1191 18.3083 42.1093 18.4268 42.0898C18.6144 42.0898 18.7625 42.0311 18.8712 41.9236C18.9798 41.8161 19.0291 41.7477 19.0489 41.7379C19.0686 41.7477 19.2266 41.8063 19.513 41.8943C19.7993 41.9823 20.0462 42.08 20.2437 42.1973C20.3424 42.2364 20.3819 42.3439 20.3721 42.4905C20.3523 42.6371 20.2832 42.7153 20.1647 42.725C20.0067 42.7348 19.8586 42.7446 19.7203 42.7446C19.5821 42.7446 19.4142 42.7348 19.2069 42.725C19.0983 42.7153 18.6144 42.7055 17.7553 42.6957C16.8963 42.6859 16.0273 42.6859 15.1288 42.6859V45.1879C15.1288 45.3541 15.109 45.5202 15.0695 45.6864C15.03 45.8525 14.9905 45.9503 14.9412 45.9698C14.9214 46.0089 14.8424 46.0284 14.7042 46.0382C14.5659 46.048 14.4869 46.0382 14.4573 46.0187C14.4474 45.9796 14.4178 45.9405 14.3783 45.8525C14.3388 45.7646 14.3191 45.6864 14.3191 45.5886V42.6469V42.6469ZM15.3361 47.9734C15.425 47.8854 15.4645 47.8268 15.4645 47.817C15.4842 47.817 15.6422 47.8463 15.9286 47.944C16.2149 48.0124 16.4519 48.1102 16.6395 48.2079C16.7383 48.2666 16.7877 48.3545 16.7679 48.4913C16.7482 48.6184 16.679 48.6966 16.5605 48.6966C16.4618 48.7064 16.3334 48.7161 16.1755 48.7161H15.6324H12.0578C11.7616 48.7161 11.495 48.677 11.2679 48.5793C11.0408 48.5011 10.9519 48.2568 11.0112 47.8463C11.0605 47.426 11.0803 46.9862 11.0507 46.5562C11.021 46.1262 11.0112 45.8916 11.0112 45.8623C11.0112 45.6375 10.9815 45.4518 10.9322 45.3052C10.8828 45.1488 10.6557 45.0218 10.2607 44.9338C10.1521 44.9143 10.1027 44.8361 10.1225 44.6993C10.1422 44.5722 10.241 44.5233 10.3989 44.5429C10.4187 44.5429 10.5964 44.5527 10.9124 44.582C11.2284 44.6015 11.5147 44.6406 11.7715 44.6895C11.8505 44.6993 11.8998 44.6993 11.9393 44.6993C11.9393 44.709 11.9196 44.7872 11.89 44.9338C11.8604 45.0804 11.8307 45.2563 11.8307 45.4714C11.8307 45.5007 11.8307 45.8037 11.8209 46.351C11.811 46.8983 11.8307 47.3381 11.89 47.6997C11.89 47.8952 11.9295 48.0222 11.9887 48.0711C12.048 48.1004 12.1566 48.1297 12.3047 48.1297C12.3442 48.1297 12.6602 48.1395 13.2329 48.159C13.8155 48.1688 14.3783 48.1688 14.9214 48.1297C15.1189 48.12 15.2473 48.0613 15.3361 47.9734ZM17.4196 35.2191C17.4196 35.2288 17.3999 35.3461 17.3604 35.5514C17.3209 35.7762 17.3011 36.0009 17.3011 36.2257C17.3011 36.2453 17.2913 36.6069 17.2814 37.291C17.2616 37.9849 17.2814 39.0307 17.3505 40.4185C16.5704 40.3599 15.7114 40.3403 14.7832 40.3599C13.855 40.3794 13.3514 40.3892 13.302 40.3892C12.9367 40.3892 12.6404 40.3306 12.4331 40.2328C12.2257 40.1351 12.127 39.8517 12.1665 39.4119C12.2158 38.7961 12.2257 38.1804 12.1961 37.5549C12.1763 36.9196 12.1665 36.5873 12.1665 36.5483C12.1665 36.3626 12.1467 36.1769 12.0973 36.0107C12.048 35.8446 11.8604 35.7175 11.5345 35.6393C11.4358 35.6002 11.3963 35.5416 11.4061 35.4145C11.4259 35.2875 11.5049 35.2386 11.653 35.2679C11.6727 35.2679 11.8307 35.2777 12.1171 35.307C12.4133 35.3461 12.6799 35.3852 12.9169 35.4536C12.9268 35.4536 12.9762 35.4634 13.065 35.5025C13.065 35.5123 13.0453 35.61 13.0058 35.8153C12.9663 36.0009 12.9465 36.2062 12.9465 36.4114V36.7535C12.9465 36.9783 12.9367 37.1444 12.9268 37.2324C13.6081 37.2617 14.3191 37.2715 15.0399 37.2617C15.7706 37.2519 16.2446 37.2422 16.5112 37.2324V36.1769C16.5112 36.0303 16.5013 35.8739 16.4717 35.7077C16.4421 35.5416 16.2446 35.4048 15.8891 35.3168C15.7805 35.2973 15.7311 35.2288 15.741 35.1311C15.7607 35.0334 15.8496 34.9943 16.0175 35.0041C16.0372 35.0041 16.1952 35.0138 16.4717 35.0236C16.758 35.0432 17.0246 35.092 17.2715 35.1604L17.4196 35.2191ZM14.4573 39.8712C15.0991 39.9005 15.7607 39.8614 16.4421 39.7539C16.5013 39.3141 16.5309 38.9525 16.5211 38.6886C16.5112 38.4345 16.5112 38.1609 16.5112 37.897C16.2643 37.8872 15.7805 37.8774 15.0498 37.8774C14.3289 37.8677 13.6081 37.8774 12.9268 37.897V38.6007C12.9268 38.8157 12.9465 39.0502 12.9663 39.3141C12.9663 39.5585 12.9959 39.7051 13.065 39.7442C13.1243 39.793 13.2428 39.8126 13.4205 39.8126C13.4797 39.8126 13.8254 39.8321 14.4573 39.8712Z" fill="#666666"/>
<path d="M23.0085 41.4154C23.1961 41.4252 23.4627 41.4545 23.7985 41.474C24.0552 41.4936 24.6279 41.4936 25.5166 41.4838C26.4053 41.4838 27.0175 41.4545 27.3532 41.3959C27.531 41.3959 27.6692 41.3665 27.7679 41.2981C27.8667 41.2395 27.9161 41.2004 27.9259 41.1906C27.9457 41.1906 28.0938 41.2297 28.3604 41.2981C28.627 41.3763 28.864 41.4643 29.0714 41.5522C29.1504 41.6109 29.1997 41.6988 29.18 41.8259C29.1602 41.9627 29.101 42.0311 28.9924 42.0409C28.8344 42.0507 28.6961 42.0604 28.5678 42.0604C28.4394 42.0604 28.2814 42.0507 28.0839 42.0409C27.7383 42.0116 27.2051 41.9725 26.4942 41.9432C25.7733 41.9236 24.855 41.9432 23.7096 42.0116C23.5615 42.0214 23.443 42.0604 23.3541 42.1093C23.2554 42.168 23.206 42.207 23.1862 42.2168C23.1764 42.2168 23.0579 42.1777 22.8406 42.08C22.6234 41.992 22.3765 41.8357 22.0803 41.6206C21.9223 41.5131 21.8729 41.4154 21.9322 41.3665C21.9914 41.2981 22.1099 41.2883 22.2877 41.3079C22.5642 41.3763 22.811 41.4056 23.0085 41.4154ZM25.6943 40.0471C25.9708 40.0471 26.1979 40.0471 26.3757 40.0276C26.8299 40.0178 27.0471 40.1155 27.0372 40.3208C27.0274 40.526 26.8595 40.6335 26.5435 40.6628C26.2769 40.6726 25.9807 40.6824 25.6647 40.6922C25.3487 40.7019 25.1216 40.7019 25.0031 40.6922C24.8945 40.6824 24.7859 40.6335 24.6773 40.5651C24.5687 40.4869 24.4107 40.3501 24.1836 40.1644C24.0749 40.0667 24.0453 39.9592 24.1046 39.881C24.1539 39.8028 24.302 39.8028 24.539 39.881C24.6674 39.9298 24.7661 39.9592 24.8451 39.9983C24.9241 40.0276 25.0229 40.0374 25.1414 40.0374H25.6943V40.0471Z" fill="#666666"/>
<path d="M24.2923 43.1844C24.6774 42.7153 25.102 42.4807 25.5759 42.4807C26.0499 42.4807 26.4745 42.7153 26.8596 43.1844C27.2348 43.6535 27.4323 44.2888 27.4323 45.0902C27.4323 45.9014 27.2447 46.5367 26.8596 46.996C26.4745 47.4652 26.0499 47.6997 25.5759 47.6997C25.102 47.6997 24.6675 47.4652 24.2923 46.996C23.9072 46.5367 23.7097 45.9014 23.7097 45.0902C23.7196 44.2888 23.9072 43.6535 24.2923 43.1844ZM24.9045 46.5953C25.0822 46.9667 25.2995 47.1524 25.5759 47.1524C25.8524 47.1524 26.0697 46.9667 26.2474 46.5758C26.4251 46.1946 26.514 45.706 26.514 45.0902C26.514 44.4941 26.4251 44.0054 26.2474 43.6144C26.0697 43.2333 25.8524 43.0476 25.5759 43.0476C25.3093 43.0476 25.0822 43.2235 24.9045 43.6047C24.7267 43.9761 24.6379 44.4745 24.6379 45.0902C24.6379 45.7255 24.7267 46.2142 24.9045 46.5953Z" fill="#666666"/>
<path d="M25.1907 37.2715C25.1907 37.0956 25.1611 36.9001 25.0821 36.7046C25.013 36.5092 24.7958 36.3723 24.4304 36.3039C24.302 36.2648 24.2527 36.1964 24.2823 36.0694C24.302 35.9325 24.4107 35.8837 24.5884 35.913C24.6081 35.913 24.776 35.913 25.0722 35.9228C25.3783 35.9423 25.6746 35.9814 25.9609 36.0498C26.0202 36.0694 26.0696 36.0889 26.1288 36.1085C26.1288 36.1182 26.1091 36.2453 26.0696 36.4799C26.0301 36.7046 26.0103 36.9392 26.0103 37.1933V38.2391C26.82 38.2391 27.5408 38.2391 28.1827 38.2293C28.8245 38.2293 29.1701 38.2195 29.2096 38.2097C29.3972 38.2097 29.5453 38.1511 29.6539 38.0338C29.7626 37.9068 29.8218 37.8579 29.8317 37.8481C29.8514 37.8579 30.0094 37.9165 30.2958 38.0045C30.5723 38.1022 30.8191 38.2 31.0265 38.3172C31.1252 38.3563 31.1746 38.4638 31.1549 38.6104C31.145 38.757 31.066 38.8352 30.9475 38.845C30.7895 38.8548 30.6513 38.8646 30.513 38.8646C30.3748 38.8646 30.2069 38.8548 29.9897 38.845C29.7527 38.8255 28.4592 38.8059 26.0794 38.7864C23.6997 38.7864 22.2975 38.7864 21.8433 38.7961C21.6853 38.8157 21.5668 38.8548 21.4681 38.9232C21.3694 38.9916 21.32 39.0209 21.3101 39.0307C21.3002 39.0307 21.1719 39.0014 20.9349 38.9037C20.6979 38.8157 20.4214 38.6691 20.1153 38.4443C19.9474 38.3172 19.8882 38.2195 19.9474 38.1413C20.0067 38.0534 20.1252 38.0338 20.3227 38.0534C20.6485 38.112 20.9151 38.1316 21.1126 38.1511C21.32 38.1609 21.6063 38.1706 21.9816 38.2097C22.0704 38.2097 22.4259 38.2097 23.0677 38.2195C23.7096 38.2195 24.4205 38.2293 25.2006 38.2391V37.2715H25.1907ZM29.1997 36.2257C29.1997 36.3528 29.1306 36.431 28.9825 36.4408C28.8344 36.4505 28.6961 36.4114 28.5776 36.3039C28.1629 35.9032 27.7087 35.5612 27.2051 35.2875C26.7015 35.0041 26.2078 34.75 25.7141 34.4958C25.4573 34.7109 25.1907 34.8966 24.9241 35.0529C24.6575 35.2191 24.3712 35.3755 24.0848 35.5318C23.7491 35.7175 23.4035 35.8934 23.048 36.0596C22.7024 36.216 22.3667 36.3332 22.0704 36.4114C21.9914 36.431 21.9322 36.431 21.8828 36.431C21.8335 36.431 21.7841 36.4017 21.7545 36.3332C21.7347 36.2648 21.7446 36.2062 21.7841 36.1573C21.8335 36.0889 21.8927 36.0498 21.9717 36.0107C22.574 35.7175 23.1665 35.3852 23.7293 35.0041C24.2922 34.6229 24.7661 34.2808 25.1512 33.9485C25.4771 33.6651 25.7832 33.3621 26.0794 33.0494C26.3757 32.7269 26.6225 32.4239 26.8101 32.1405C26.5435 32.1307 26.1683 32.1209 25.6746 32.1014C25.1907 32.0818 24.6871 32.1014 24.1737 32.1698C24.0651 32.1796 23.9663 32.2284 23.8972 32.2773C23.8182 32.3359 23.7886 32.3652 23.7688 32.3652C23.759 32.3652 23.6405 32.3164 23.4232 32.2382C23.206 32.16 22.9888 32.033 22.7616 31.8668C22.6135 31.7398 22.574 31.6322 22.6234 31.5247C22.6728 31.4172 22.7814 31.3781 22.969 31.427C23.127 31.4466 23.2455 31.4563 23.3344 31.4759C23.4232 31.4759 23.5318 31.4856 23.6503 31.5052C23.7195 31.515 23.7984 31.515 23.9071 31.515C24.0157 31.515 24.1737 31.5247 24.381 31.5345C24.8056 31.5443 25.1611 31.5541 25.4573 31.5541C25.7437 31.5541 26.1486 31.5443 26.662 31.5052C26.7904 31.4954 26.9286 31.4466 27.0965 31.3781C27.2644 31.3 27.3532 31.2706 27.3631 31.2609C27.3828 31.2609 27.4618 31.2902 27.61 31.3586C27.7581 31.4368 27.8766 31.515 27.9654 31.6225C28.0938 31.7202 28.1432 31.8082 28.1432 31.8766C28.1432 31.9548 28.1234 32.0232 28.0642 32.0916C27.9951 32.1991 27.7482 32.5021 27.3039 32.981C26.8595 33.4501 26.4448 33.8606 26.0597 34.1929C26.188 34.2515 26.3954 34.3297 26.7015 34.4274C26.9977 34.5349 27.3236 34.6522 27.6495 34.7793C28.0444 34.9357 28.39 35.092 28.706 35.2679C29.0121 35.4341 29.1701 35.5905 29.1701 35.7371V36.2257H29.1997Z" fill="#666666"/>
<path d="M41.3058 43.0182C41.1676 43.0182 40.9997 43.0085 40.7923 42.9987C40.5553 42.9792 39.2421 42.9498 36.8623 42.9498C34.4727 42.9401 33.0607 42.9401 32.6164 42.9498C32.4584 42.9694 32.33 43.0085 32.2313 43.0769C32.1325 43.1453 32.0831 43.1746 32.0733 43.2039C32.0634 43.2039 31.935 43.1551 31.698 43.0671C31.4512 42.9889 31.1846 42.8325 30.8883 42.6078C30.7205 42.4807 30.6612 42.383 30.7205 42.3048C30.7797 42.2168 30.8982 42.1973 31.0858 42.2168C31.4117 42.2755 31.6783 42.295 31.8857 42.3146C32.093 42.3243 32.3794 42.3439 32.7546 42.3732C32.9422 42.383 34.1765 42.3927 36.4476 42.4123C38.7286 42.4123 39.9135 42.4025 40.032 42.3732C40.2196 42.3732 40.3677 42.3146 40.4764 42.2071C40.5751 42.0898 40.6343 42.0311 40.6541 42.0116C40.6738 42.0214 40.8318 42.0898 41.1182 42.1875C41.4045 42.2852 41.6514 42.4025 41.8489 42.5003C41.9575 42.5589 41.997 42.6469 41.9773 42.7837C41.9575 42.9107 41.8884 42.9889 41.76 42.9987C41.5922 43.0085 41.444 43.0182 41.3058 43.0182ZM37.2869 47.9734C37.3659 47.8854 37.4153 47.8268 37.4153 47.817C37.435 47.817 37.5832 47.8463 37.8695 47.9245C38.146 47.9929 38.383 48.0809 38.5706 48.1786C38.6792 48.2372 38.7385 48.3252 38.7187 48.4718C38.699 48.6086 38.6298 48.6868 38.5114 48.6966C38.4027 48.7064 38.2744 48.7161 38.1164 48.7161H37.5733H34.0185C33.7124 48.7161 33.4557 48.6673 33.2187 48.5793C32.9817 48.5011 32.8928 48.2568 32.9521 47.8463C33.0212 47.4358 33.0311 46.9862 33.0015 46.4976C32.9718 46.0089 32.9521 45.7548 32.9521 45.7255C32.9521 45.5496 32.9323 45.3834 32.883 45.1977C32.8336 45.0218 32.6164 44.885 32.2016 44.797C32.093 44.7775 32.0436 44.6993 32.0634 44.5624C32.0831 44.4256 32.1918 44.3865 32.3695 44.4061C32.3892 44.4061 32.5571 44.4158 32.8731 44.4452C33.1891 44.4549 33.4656 44.5038 33.7322 44.5429C33.7815 44.5527 33.8408 44.5624 33.9198 44.5624C33.9198 44.5722 33.9 44.6602 33.8605 44.8068C33.821 44.9534 33.8013 45.1293 33.8013 45.315C33.8013 45.3541 33.8013 45.6668 33.7914 46.263C33.7815 46.8592 33.8112 47.3283 33.8605 47.6899C33.8605 47.8854 33.9 48.0124 33.9593 48.0613C34.0284 48.0906 34.137 48.12 34.2851 48.12C34.3246 48.12 34.6307 48.1297 35.2133 48.1493C35.786 48.1591 36.3489 48.1591 36.892 48.12C37.0598 48.12 37.1981 48.0613 37.2869 47.9734ZM34.5814 39.4314C34.058 38.9525 33.8013 38.327 33.8013 37.5451C33.8013 36.8806 33.9988 36.3332 34.3937 35.913C34.7887 35.4732 35.2726 35.2093 35.865 35.092C35.8255 34.8477 35.7959 34.6913 35.7762 34.6229C35.7663 34.5545 35.7762 34.4958 35.8058 34.447C35.865 34.3395 36.0131 34.2808 36.2699 34.2808C36.5266 34.2906 36.6846 34.3492 36.7438 34.4665C36.7735 34.5252 36.7833 34.6131 36.7636 34.7402C36.7438 34.8672 36.7241 34.9845 36.7043 35.1116C37.2968 35.2191 37.7905 35.4927 38.1855 35.9228C38.5904 36.343 38.778 36.8806 38.778 37.5451C38.778 38.327 38.5212 38.9525 37.9979 39.4314C37.4745 39.9103 36.9018 40.1449 36.2797 40.1449C35.6774 40.1449 35.1047 39.9103 34.5814 39.4314ZM35.1244 39.0209C35.3911 39.4119 35.786 39.5976 36.2995 39.5976C36.813 39.5976 37.2079 39.4021 37.4745 39.0209C37.7412 38.6398 37.8695 38.1511 37.8695 37.5549C37.8695 36.9685 37.7313 36.4896 37.4745 36.0987C37.2079 35.7175 36.813 35.5318 36.2995 35.5318C35.786 35.5318 35.3911 35.7175 35.1244 36.0987C34.8578 36.4896 34.7196 36.9685 34.7196 37.5549C34.7196 38.1511 34.8578 38.6398 35.1244 39.0209Z" fill="#666666"/>
<path d="M45.6899 38.2684C45.3345 38.2586 44.9099 38.2586 44.426 38.2684C43.9422 38.2684 43.4682 38.2977 43.014 38.3466C42.9054 38.3466 42.8066 38.3856 42.7276 38.4345C42.6486 38.5029 42.5993 38.5225 42.5894 38.5225C42.5795 38.5225 42.4907 38.4736 42.3129 38.3954C42.1352 38.3075 41.9278 38.1706 41.681 37.9947C41.523 37.8677 41.4637 37.7602 41.4933 37.6624C41.523 37.5647 41.6415 37.5256 41.8291 37.5647C41.9969 37.6038 42.1056 37.6038 42.1549 37.6233C42.2043 37.6233 42.303 37.6331 42.4413 37.6429C42.5104 37.6526 42.5894 37.6624 42.698 37.6624C42.7968 37.6624 42.9547 37.6722 43.1621 37.7015C43.3201 37.7113 43.6657 37.7113 44.189 37.7015C44.7223 37.7015 45.216 37.6917 45.6702 37.682C45.6702 37.4376 45.6702 37.2031 45.6801 36.9783C45.6899 36.7535 45.6801 36.5189 45.6702 36.2746C45.6603 36.0498 45.6208 35.8837 45.5517 35.7762C45.4925 35.6589 45.3542 35.6198 45.1567 35.6295C45.137 35.6295 44.9 35.6198 44.4655 35.61C44.0311 35.6002 43.6361 35.6296 43.2905 35.7273C43.1522 35.7566 43.0436 35.8055 42.9547 35.8641C42.856 35.9228 42.8066 35.9521 42.8066 35.9521C42.7968 35.9423 42.698 35.8739 42.5005 35.7762C42.3129 35.6784 42.1055 35.522 41.8686 35.3266C41.7007 35.18 41.6415 35.0822 41.6711 35.0138C41.7007 34.9454 41.8192 34.9259 41.9969 34.9454C42.2142 34.9943 42.4512 35.0236 42.698 35.0431C42.9449 35.0725 43.1917 35.092 43.4386 35.1018H43.8336C43.9521 35.092 44.189 35.0822 44.5643 35.0627H44.8407C44.9494 35.0627 45.0679 35.0529 45.216 35.0431C45.2752 35.0236 45.374 34.9747 45.5221 34.9259C45.6702 34.8672 45.7887 34.8184 45.8677 34.7499C45.8776 34.7499 45.8973 34.7402 45.9467 34.7402C45.9862 34.7304 46.0257 34.7402 46.075 34.7793C46.1343 34.7988 46.2429 34.877 46.4206 35.0041C46.5984 35.1311 46.6873 35.1995 46.6971 35.2093C46.6774 35.3657 46.6379 35.5318 46.5885 35.698C46.5391 35.8641 46.5095 36.0987 46.5095 36.3821C46.5095 36.5971 46.4996 36.8903 46.4898 37.3008C46.47 37.7015 46.4601 38.024 46.4503 38.2684C46.4404 38.757 46.4305 39.2164 46.4108 39.6562C46.391 40.1058 46.3812 40.3306 46.3713 40.3599C46.3219 40.526 46.1935 40.6238 46.0059 40.6335C45.8282 40.6531 45.7097 40.6042 45.6801 40.4674C45.6702 40.2133 45.6702 39.881 45.6702 39.4705C45.6801 39.06 45.6801 38.7082 45.6801 38.415V38.2684H45.6899ZM49.2842 37.7406H48.8596C48.6621 37.7406 48.4943 37.7504 48.356 37.7895C48.2474 37.7992 48.1388 37.8286 48.0598 37.8677C47.9611 37.9263 47.9216 37.9458 47.9117 37.9458C47.9018 37.9458 47.8031 37.9263 47.6154 37.9068C47.4278 37.8872 47.1908 37.7699 46.9045 37.5745C46.7564 37.4767 46.6971 37.3692 46.7169 37.2715C46.7366 37.1737 46.8354 37.1347 47.0032 37.1542C47.3686 37.2128 47.6648 37.2324 47.8722 37.2324C48.0795 37.2226 48.3462 37.2226 48.6621 37.2226H49.2842V34.7402C49.2842 34.5154 49.2151 34.3297 49.067 34.1733C48.9189 34.0169 48.7115 33.9094 48.4153 33.8312C48.2573 33.7922 48.198 33.6944 48.2277 33.5674C48.2573 33.4305 48.3659 33.3817 48.5535 33.4012C48.5733 33.4012 48.751 33.411 49.0867 33.4501C49.4126 33.4696 49.7384 33.5283 50.0347 33.6162C50.0544 33.626 50.1137 33.6456 50.2025 33.6651C50.2025 33.6749 50.1828 33.8019 50.1334 34.0365C50.084 34.2711 50.0643 34.5154 50.0643 34.7597V44.0151C50.0643 44.1813 50.0445 44.367 50.005 44.582C49.9655 44.797 49.9162 44.9045 49.8569 44.924C49.8372 44.9436 49.7681 44.9534 49.6496 44.9729C49.5311 44.9827 49.462 44.9729 49.4225 44.9534C49.4027 44.9338 49.3731 44.8459 49.3435 44.709C49.3138 44.5722 49.2941 44.4647 49.2941 44.3767V37.7406H49.2842Z" fill="#666666"/>
<path d="M54.7744 45.1391C54.7744 45.315 54.7546 45.4812 54.7152 45.6473C54.6757 45.8135 54.6263 45.9014 54.5769 45.921C54.5572 45.9503 54.4782 45.9601 54.3498 45.9894C54.2214 45.9992 54.1326 45.9894 54.1128 45.9698C54.0931 45.9503 54.0733 45.8917 54.0338 45.8135C53.9943 45.7353 53.9746 45.6473 53.9746 45.53V42.1582C53.5895 42.1484 53.2636 42.1484 52.9871 42.1484C52.7107 42.1582 52.523 42.1582 52.4144 42.1582C52.2564 42.168 52.1281 42.2169 52.0293 42.2853C51.9306 42.3439 51.8812 42.383 51.8713 42.3928C51.8615 42.3928 51.7331 42.3439 51.4961 42.2657C51.2591 42.1778 50.9826 42.0214 50.6864 41.8064C50.5185 41.6793 50.4593 41.5816 50.5185 41.4936C50.5778 41.4154 50.6963 41.3861 50.8839 41.4057C51.2098 41.4643 51.4764 41.4936 51.6837 41.5034C51.8911 41.5132 52.1774 41.5327 52.5428 41.5718C52.7304 41.5816 53.9055 41.5816 56.0581 41.5914C58.2107 41.6011 59.3364 41.5914 59.4549 41.5718C59.6425 41.5718 59.7906 41.5132 59.8992 41.4057C60.0078 41.2982 60.0572 41.2297 60.0769 41.22C60.0967 41.2297 60.2547 41.2884 60.541 41.3861C60.8274 41.4838 61.0742 41.5816 61.2717 41.6891C61.3705 41.7477 61.41 41.8357 61.4001 41.9725C61.3803 42.1191 61.3112 42.1875 61.1927 42.2071C61.0446 42.2169 60.8965 42.2266 60.7583 42.2266C60.62 42.2266 60.4522 42.2169 60.2349 42.2071C60.1559 42.1875 59.8992 42.1875 59.4647 42.168C59.0204 42.1582 58.4872 42.1582 57.8749 42.1582V45.1293C57.8749 45.3052 57.8552 45.4714 57.8157 45.6375C57.7762 45.8037 57.7268 45.8916 57.6775 45.9112C57.6577 45.9405 57.5787 45.9503 57.4504 45.9796C57.322 45.9894 57.243 45.9796 57.2035 45.9601C57.1936 45.9405 57.164 45.8819 57.1245 45.8037C57.085 45.7255 57.0653 45.6375 57.0653 45.5203V42.1484C56.6802 42.1484 56.3049 42.1484 55.91 42.1387C55.5249 42.1387 55.1496 42.1289 54.7941 42.1289V45.1391H54.7744ZM57.4109 34.9357C57.5195 34.9064 57.638 34.8379 57.7565 34.75C57.7861 34.7304 57.8355 34.7207 57.8848 34.7304C57.9243 34.7402 57.9638 34.75 57.9737 34.75C58.0626 34.7988 58.1712 34.8477 58.2995 34.9357C58.4279 35.0139 58.5267 35.092 58.6057 35.1605C58.5958 35.1702 58.576 35.3266 58.5365 35.6394C58.497 35.9423 58.4773 36.1671 58.4773 36.2844C58.4674 36.9294 58.4575 37.4865 58.4378 37.9752C58.4378 38.4639 58.4378 39.0405 58.4773 39.7246C57.6281 39.6855 56.7493 39.6758 55.831 39.6855C54.9126 39.7051 54.4288 39.7246 54.3695 39.7246C54.1029 39.7246 53.8561 39.6758 53.629 39.578C53.4019 39.4803 53.313 39.236 53.3624 38.8255C53.4216 38.327 53.4315 37.7895 53.4019 37.2324C53.3722 36.6656 53.3624 36.3626 53.3624 36.3333C53.3624 36.0205 53.3327 35.7957 53.2735 35.6687C53.2142 35.5416 53.0958 35.4634 52.9081 35.4341C52.7304 35.4146 52.6415 35.3266 52.6514 35.1898C52.6613 35.0432 52.7403 34.965 52.9081 34.965L54.3992 35.0139C54.725 35.0236 55.1595 35.0236 55.7125 35.0236C56.2556 35.0236 56.7394 35.0236 57.1541 35.0139C57.2134 34.9943 57.2924 34.9748 57.4109 34.9357ZM54.3893 39.06C54.4584 39.1187 54.567 39.1382 54.7152 39.1285C54.7349 39.1285 55.0114 39.148 55.515 39.1871C56.0284 39.2164 56.7098 39.1969 57.559 39.0894C57.6577 38.3173 57.6873 37.6038 57.6577 36.9099C57.6182 36.216 57.5787 35.7762 57.559 35.5612C56.9171 35.5123 56.2556 35.5025 55.5545 35.5123C54.8534 35.5221 54.4387 35.5416 54.3103 35.5807C54.2906 35.786 54.2609 36.216 54.2214 36.8708C54.1819 37.5256 54.2017 38.1413 54.2906 38.718C54.2906 38.8744 54.3202 38.9916 54.3893 39.06Z" fill="#666666"/>
<path d="M65.7745 39.4999C65.8337 39.4314 65.8831 39.363 65.9324 39.2946C66.0312 39.3044 66.2089 39.3533 66.4558 39.4217C66.6928 39.4901 66.91 39.5683 67.0877 39.666C67.2062 39.7246 67.2457 39.8224 67.226 39.9787C67.2062 40.1254 67.1371 40.2035 67.0186 40.2231C66.8705 40.2329 66.7323 40.2329 66.594 40.2329H66.0904L62.901 40.272C62.5949 40.272 62.3382 40.2329 62.1012 40.1449C61.8741 40.0569 61.7852 39.8126 61.8445 39.4119C61.9037 38.9623 61.9136 38.327 61.884 37.4865C61.8642 36.6558 61.8445 36.2062 61.8445 36.1476C61.8445 35.9326 61.8148 35.7566 61.7655 35.61C61.7161 35.4537 61.4791 35.3462 61.0644 35.2387C60.9558 35.2191 60.9064 35.1409 60.936 35.0041C60.9656 34.877 61.0644 34.8282 61.2421 34.8477C61.2619 34.8477 61.4297 34.8575 61.7358 34.8966C62.0419 34.9161 62.3283 34.965 62.585 35.0041C62.6344 35.0236 62.6838 35.0236 62.7529 35.0236C62.7529 35.0334 62.7332 35.1116 62.7035 35.2582C62.6739 35.4048 62.664 35.5807 62.6739 35.7762C62.6739 35.8446 62.664 36.343 62.6542 37.2715C62.6443 38.1902 62.664 38.8157 62.7233 39.1676C62.7233 39.3923 62.7628 39.5096 62.8615 39.5487C62.9603 39.5878 63.0491 39.5878 63.138 39.5878C63.1578 39.5878 63.4046 39.5976 63.8588 39.6269C64.3229 39.6465 64.8265 39.6367 65.3696 39.5878C65.5967 39.6074 65.7152 39.5683 65.7745 39.4999ZM69.5465 40.8095C69.5465 40.9854 69.5267 41.1613 69.4872 41.3763C69.4477 41.5914 69.3984 41.6989 69.349 41.7282C69.3292 41.738 69.2601 41.7477 69.1416 41.7575C69.0231 41.7673 68.9441 41.7673 68.9145 41.738C68.8948 41.7184 68.8651 41.6402 68.8355 41.4936C68.796 41.3568 68.7861 41.2493 68.7861 41.1613V31.5541C68.7861 31.3391 68.717 31.1436 68.5689 30.9872C68.4208 30.8309 68.2035 30.7233 67.9172 30.6452C67.7592 30.5963 67.6901 30.5181 67.7296 30.3813C67.7493 30.2444 67.8678 30.1956 68.0554 30.2151C68.0752 30.2151 68.2529 30.2347 68.5788 30.2542C68.9046 30.2738 69.2206 30.3324 69.5267 30.4301C69.5465 30.4399 69.6057 30.4497 69.6946 30.4595C69.6946 30.4692 69.6748 30.5963 69.6255 30.8309C69.586 31.0752 69.5563 31.3097 69.5563 31.5541V40.8095H69.5465Z" fill="#666666"/>
<path d="M73.6838 38.2684C73.3777 38.2586 73.0419 38.2586 72.6667 38.2684C72.2915 38.2684 71.8965 38.2977 71.4719 38.3466C71.3534 38.3466 71.2646 38.3857 71.1856 38.4345C71.1066 38.503 71.0671 38.5225 71.0572 38.5225C71.0473 38.5225 70.9584 38.4736 70.8005 38.3954C70.6326 38.3075 70.4252 38.1707 70.1882 37.9947C70.0401 37.8677 69.9809 37.7699 70.0204 37.6722C70.05 37.5745 70.1586 37.5354 70.3364 37.5647C70.4944 37.594 70.5931 37.6038 70.6425 37.6233C70.6918 37.6233 70.7906 37.6331 70.9387 37.6429C71.0078 37.6527 71.0868 37.6624 71.1757 37.6624C71.2744 37.6624 71.4225 37.6722 71.6398 37.7015C71.7978 37.7113 72.0742 37.7113 72.4692 37.7015C72.8642 37.7015 73.269 37.6918 73.6838 37.682C73.6838 37.4376 73.6838 37.2031 73.6936 36.9783C73.6936 36.7535 73.6936 36.5189 73.6838 36.2746C73.6739 36.0498 73.6344 35.8837 73.5653 35.7762C73.4962 35.6687 73.3579 35.6198 73.1604 35.6296H72.6963C72.3902 35.6296 72.094 35.6589 71.778 35.7175C71.6398 35.7469 71.5312 35.7957 71.4423 35.8544C71.3534 35.913 71.304 35.9423 71.2843 35.9423C71.2744 35.9325 71.1757 35.8641 70.9881 35.7664C70.8005 35.6687 70.5832 35.5123 70.3462 35.3168C70.1882 35.1702 70.1191 35.0725 70.1586 35.0041C70.1981 34.9357 70.3067 34.9161 70.4845 34.9357C70.7116 34.9845 70.9486 35.0138 71.1856 35.0334C71.4324 35.0627 71.6793 35.0823 71.9261 35.092H72.2322C72.2816 35.0823 72.4001 35.0725 72.5778 35.0529H72.8543C72.9629 35.0529 73.0814 35.0432 73.2296 35.0334C73.2888 35.0138 73.3974 34.965 73.5357 34.9259C73.6936 34.8672 73.8023 34.8184 73.8813 34.75C73.901 34.75 73.9208 34.7402 73.9603 34.7402C73.9998 34.7304 74.0392 34.7402 74.0886 34.7793C74.138 34.7988 74.2565 34.877 74.4244 35.0041C74.6021 35.1311 74.691 35.1898 74.7008 35.1995C74.6811 35.3559 74.6416 35.5221 74.5922 35.6882C74.5428 35.8544 74.5231 36.0889 74.5231 36.3626C74.5231 36.5776 74.5132 36.8708 74.4935 37.291C74.4737 37.6918 74.4638 38.0143 74.454 38.2586C74.4342 38.7473 74.4243 39.2066 74.4046 39.6464C74.3848 40.0862 74.375 40.3208 74.3651 40.3501C74.3059 40.5163 74.1874 40.614 74.0096 40.6336C73.822 40.6531 73.7134 40.6042 73.6838 40.4674C73.6739 40.2133 73.664 39.8712 73.6739 39.4607C73.6838 39.0503 73.6838 38.7082 73.6838 38.4052V38.2684V38.2684ZM75.8265 37.9459C75.7179 37.9459 75.6191 37.9654 75.5402 38.0241C75.471 38.0925 75.4217 38.112 75.4019 38.112C75.4019 38.112 75.3328 38.1022 75.2242 38.0729C75.1156 38.0534 74.9477 37.9263 74.7206 37.7211C74.6021 37.6233 74.5626 37.5158 74.5823 37.4181C74.6021 37.3204 74.6811 37.2813 74.7996 37.3204C75.0761 37.3595 75.3822 37.3888 75.6883 37.379C76.0042 37.3692 76.2906 37.3692 76.5473 37.379V35.2875C76.5473 35.1116 76.498 34.9063 76.3992 34.7109C76.3005 34.4959 76.0734 34.3395 75.7179 34.2515C75.5698 34.2124 75.5105 34.1342 75.5402 34.0072C75.5698 33.8801 75.6586 33.841 75.8166 33.8606C75.8364 33.8606 76.0043 33.8801 76.3005 33.9192C76.6066 33.9681 76.9028 34.017 77.1892 34.0854C77.2682 34.1049 77.3274 34.1147 77.357 34.1147C77.357 34.1245 77.3373 34.2515 77.2978 34.4665C77.2583 34.7011 77.2385 34.9454 77.2385 35.1995V43.5753C77.2385 43.7415 77.2188 43.9174 77.1694 44.1031C77.1299 44.2693 77.0707 44.367 77.0213 44.4061C77.0016 44.4256 76.9423 44.4549 76.8633 44.4647C76.7745 44.4745 76.7251 44.4647 76.6856 44.4354C76.6658 44.4061 76.6362 44.3377 76.5967 44.2302C76.5671 44.1324 76.5473 44.0347 76.5473 43.9467V37.9361L75.8265 37.9459ZM78.7789 34.5545C78.7789 34.3297 78.7197 34.1342 78.6111 33.9583C78.5025 33.7824 78.2655 33.6358 77.9001 33.5185C77.7718 33.4892 77.7224 33.411 77.752 33.284C77.7816 33.1471 77.8903 33.108 78.0482 33.1276C78.068 33.1276 78.2457 33.1471 78.5617 33.196C78.8876 33.2351 79.1838 33.284 79.48 33.3524C79.559 33.3719 79.6084 33.3817 79.6479 33.3817C79.6479 33.3915 79.6183 33.5185 79.5788 33.7335C79.5393 33.9681 79.5097 34.2124 79.5097 34.4665V44.064C79.5097 44.2302 79.4899 44.4159 79.4405 44.6309C79.3912 44.8459 79.3517 44.9534 79.3023 44.9729C79.2825 45.0023 79.2134 45.0316 79.1147 45.0413C79.0061 45.0511 78.9369 45.0413 78.9073 45.0218C78.8876 45.0023 78.8678 44.9241 78.8283 44.8166C78.7888 44.6895 78.7691 44.5722 78.7691 44.4256V34.5545H78.7789Z" fill="#666666"/>
<path d="M82.9361 34.7011C82.9163 34.8282 82.8966 34.9454 82.8768 35.0725C83.4693 35.18 83.963 35.4634 84.358 35.8837C84.753 36.3235 84.9504 36.861 84.9504 37.5354C84.9504 38.327 84.6937 38.9623 84.1704 39.4412C83.6569 39.9103 83.0842 40.1547 82.4522 40.1547C81.8301 40.1547 81.2574 39.9103 80.7341 39.4412C80.2206 38.9623 79.954 38.327 79.954 37.5354C79.954 36.8708 80.1614 36.3235 80.5465 35.8837C80.9414 35.4537 81.4253 35.1604 81.998 35.0236C81.9486 34.7891 81.9289 34.6425 81.919 34.5643C81.9091 34.4959 81.919 34.4274 81.9486 34.359C82.0079 34.2613 82.1659 34.2027 82.4226 34.2222C82.6793 34.232 82.8373 34.3004 82.9064 34.4079C82.9459 34.4763 82.9558 34.574 82.9361 34.7011ZM81.3068 39.0014C81.5932 39.3923 81.9783 39.578 82.4522 39.578C82.9657 39.578 83.3607 39.3923 83.6273 39.0014C83.8939 38.6202 84.0321 38.1316 84.0321 37.5354C84.0321 36.9392 83.8939 36.4505 83.6273 36.0694C83.3607 35.6784 82.9657 35.4927 82.4522 35.4927C81.9783 35.4927 81.5932 35.6784 81.3068 36.0694C81.0204 36.4603 80.8822 36.949 80.8822 37.5354C80.8822 38.1316 81.0303 38.6202 81.3068 39.0014ZM88.3373 43.9565C88.3373 44.1226 88.3176 44.3083 88.2781 44.5136C88.2386 44.7286 88.1991 44.8459 88.1399 44.8752C88.1201 44.885 88.0411 44.8947 87.9226 44.9045C87.814 44.9241 87.735 44.9143 87.6955 44.8947C87.6758 44.8654 87.6461 44.7872 87.6066 44.6504C87.577 44.5038 87.5671 44.3963 87.5671 44.3083V34.7109C87.5671 34.4861 87.4882 34.3004 87.3499 34.144C87.2018 33.9876 86.9846 33.8606 86.6883 33.7922C86.5402 33.7629 86.4711 33.6651 86.5007 33.5381C86.5303 33.3915 86.639 33.3426 86.8266 33.3719C86.8463 33.3719 87.0339 33.3817 87.3598 33.4012C87.6955 33.4208 88.0115 33.4892 88.3077 33.5772C88.3275 33.5869 88.3768 33.5967 88.4756 33.6065C88.4756 33.6163 88.4558 33.7531 88.4065 33.9876C88.3571 34.2222 88.3373 34.4568 88.3373 34.7109V43.9565Z" fill="#666666"/>
<path d="M93.1955 38.933C92.8697 38.5518 92.4747 38.1413 92.0007 37.6918C91.9316 37.7993 91.8625 37.9068 91.7934 38.0143C91.7242 38.112 91.6551 38.2195 91.5761 38.3075C91.2601 38.7082 90.9146 39.0894 90.5393 39.4412C90.1641 39.8028 89.8185 40.1253 89.4729 40.3892C89.3939 40.4479 89.2754 40.526 89.1075 40.614C88.9495 40.702 88.8409 40.702 88.8014 40.614C88.7619 40.5456 88.7718 40.4576 88.8508 40.3697C88.9298 40.2719 88.9989 40.1938 89.068 40.1449C89.4235 39.8419 89.7592 39.4998 90.0752 39.1187C90.4011 38.7277 90.6677 38.3759 90.8849 38.0534C91.1318 37.7211 91.349 37.3301 91.5366 36.8806C91.7243 36.4408 91.8329 36.0596 91.8822 35.7273C91.902 35.6296 91.9119 35.4927 91.8921 35.3364C91.8724 35.18 91.665 35.0627 91.2601 34.965C91.112 34.9259 91.0528 34.8379 91.0725 34.7109C91.0923 34.5838 91.191 34.535 91.3589 34.5545C91.3786 34.5545 91.5663 34.5741 91.902 34.6131C92.2377 34.6522 92.5043 34.6816 92.6919 34.7402C92.8302 34.7988 92.919 34.8477 92.9585 34.9161C92.9882 34.9845 92.998 35.092 92.9684 35.2484C92.9289 35.4927 92.8499 35.8055 92.7117 36.1769C92.5734 36.5483 92.4155 36.9197 92.2081 37.3008C92.3365 37.3888 92.5241 37.5354 92.7907 37.7309C93.0573 37.9361 93.3338 38.1511 93.6103 38.3857C93.8769 38.6202 94.1237 38.845 94.3311 39.0698C94.5483 39.2946 94.6569 39.4705 94.6569 39.6171V40.3892C94.6569 40.5163 94.5878 40.5749 94.4496 40.5749C94.3113 40.5749 94.2225 40.526 94.1632 40.4185C93.8571 39.8028 93.5214 39.3141 93.1955 38.933ZM94.6174 46.9178C94.6964 46.8299 94.7458 46.7712 94.7458 46.7615C94.7656 46.7712 94.9235 46.8201 95.2 46.9081C95.4765 46.996 95.7135 47.084 95.9011 47.1817C95.9999 47.2404 96.0393 47.3283 96.0295 47.4358C96.0196 47.5629 95.9604 47.6215 95.832 47.6411C95.7332 47.6508 95.595 47.6606 95.437 47.6606H94.8939H91.4379C91.1318 47.6606 90.8652 47.6215 90.6381 47.5238C90.411 47.4358 90.3221 47.2013 90.3813 46.7908C90.4406 46.3705 90.4603 45.9112 90.4307 45.4225C90.3912 44.9338 90.3813 44.6797 90.3813 44.6504C90.3813 44.4256 90.3616 44.2399 90.3122 44.0933C90.2628 43.937 90.0357 43.8099 89.6309 43.7219C89.5124 43.7024 89.4729 43.6242 89.4926 43.4972C89.5124 43.3701 89.6111 43.331 89.779 43.3506C89.7987 43.3506 89.9666 43.3603 90.2925 43.3701C90.6084 43.3897 90.9047 43.4287 91.1515 43.4776C91.2009 43.4874 91.2503 43.4972 91.3194 43.4972C91.3194 43.5069 91.2996 43.5851 91.27 43.7317C91.2404 43.8783 91.2207 44.0542 91.2207 44.2595C91.2207 44.2986 91.2108 44.6113 91.2009 45.2173C91.191 45.8135 91.2207 46.2826 91.2898 46.6246C91.2898 46.8397 91.3293 46.9569 91.428 46.996C91.5169 47.0254 91.6058 47.0351 91.6946 47.0351C91.7341 47.0351 92.0106 47.0449 92.5636 47.0742C93.1165 47.0938 93.6596 47.084 94.2126 47.0547C94.3903 47.0644 94.5286 47.0058 94.6174 46.9178ZM96.5627 38.5714C96.5133 38.5811 96.4738 38.5909 96.4244 38.5909C96.3751 38.6007 96.2862 38.6105 96.1776 38.6202C96.0492 38.6398 95.9604 38.6789 95.8912 38.718C95.8221 38.7766 95.7727 38.7962 95.7629 38.7962C95.7431 38.7962 95.6444 38.7766 95.4568 38.7277C95.2691 38.6984 95.0223 38.5714 94.7162 38.3564C94.5681 38.2586 94.5088 38.1609 94.5286 38.0534C94.5483 37.9556 94.6569 37.9166 94.8347 37.9459C95.2198 38.0045 95.516 38.0241 95.7036 38.0241C95.8912 38.0241 96.148 38.0436 96.4738 38.0632H96.6022C96.6318 38.0632 96.6614 38.0534 96.7009 38.0436C96.7404 38.0436 96.7898 38.0436 96.8293 38.0338C96.8688 38.0338 96.9379 38.0241 97.0367 38.0241V36.2551H96.5824C96.4936 36.2551 96.4343 36.2551 96.3948 36.2648C96.3652 36.2648 96.2862 36.2746 96.1776 36.2844C96.069 36.2942 95.9702 36.3235 95.8912 36.3821C95.8024 36.4408 95.7629 36.4603 95.753 36.4603C95.7431 36.4603 95.6444 36.4505 95.4469 36.4212C95.2593 36.3919 95.0124 36.2648 94.7063 36.0498C94.5582 35.9521 94.5088 35.8446 94.5286 35.7371C94.5483 35.6393 94.6569 35.5905 94.8347 35.6296C95.2099 35.6784 95.4963 35.7078 95.6839 35.7078C95.8616 35.7175 96.1282 35.7175 96.4738 35.7175H96.6614C96.7207 35.7175 96.7701 35.7175 96.8194 35.7078H97.0268V31.5541C97.0268 31.3391 96.9577 31.1436 96.8095 30.9872C96.6713 30.8308 96.4541 30.7233 96.1578 30.6451C95.9999 30.5963 95.9406 30.5181 95.9702 30.3813C95.9999 30.2444 96.1085 30.1858 96.2961 30.2151C96.3158 30.2151 96.5034 30.2347 96.8293 30.2542C97.165 30.2738 97.481 30.3324 97.7772 30.4301C97.797 30.4399 97.8562 30.4497 97.9451 30.4595C97.9451 30.4692 97.9254 30.5963 97.876 30.8308C97.8365 31.0752 97.8069 31.3097 97.8069 31.5541V40.7704C97.8069 40.9365 97.7871 41.132 97.7476 41.3372C97.7081 41.5425 97.6587 41.6598 97.6094 41.6793C97.5797 41.6891 97.5106 41.6989 97.3921 41.7282C97.2736 41.7379 97.2045 41.7282 97.165 41.7086C97.1453 41.6891 97.1156 41.6011 97.0762 41.4643C97.0465 41.3275 97.0268 41.2102 97.0268 41.1222V38.5714H96.5627V38.5714Z" fill="#666666"/>
</g>
<defs>
<clipPath id="clip0_1911_477">
<rect width="113" height="52" fill="white"/>
</clipPath>
</defs>
</svg>
