<svg width="40" height="40" viewBox="0 0 40 40" fill="none" xmlns="http://www.w3.org/2000/svg">
<path d="M27.5183 8H12.4732C6.68203 8 2 12.6907 2 18.4737C2 24.2566 6.6905 28.9473 12.4732 28.9473H17.1552C19.1025 28.9473 20.8213 29.9803 21.7695 31.5297C22.2775 32.351 22.5738 31.9277 22.5738 31.5297V28.9473V24.4852H12.4732C9.15428 24.4852 6.45343 21.7927 6.45343 18.4652C6.45343 15.1461 9.14582 12.4452 12.4732 12.4452H27.5183C30.8372 12.4452 33.5381 15.1377 33.5381 18.4652C33.5381 21.7927 30.8457 24.4852 27.5183 24.4852H24.6058V28.9473H27.5268C33.3095 28.9473 38 24.2566 38 18.4737C38 12.6907 33.3095 8 27.5183 8Z" fill="#71D97E"/>
</svg>
