<svg width="40" height="40" viewBox="0 0 40 40" fill="none" xmlns="http://www.w3.org/2000/svg">
<circle cx="10.7143" cy="13.2143" r="1.07143" fill="#121212"/>
<circle cx="15.7143" cy="13.2143" r="1.07143" fill="#121212"/>
<circle cx="20.7143" cy="13.2143" r="1.07143" fill="#121212"/>
<path fill-rule="evenodd" clip-rule="evenodd" d="M25.7501 10.6851V19.9998C25.7501 20.4141 25.4143 20.7498 25.0001 20.7498H15.3107L10.5304 25.5302C10.3159 25.7447 9.99332 25.8088 9.71307 25.6927C9.43281 25.5767 9.25008 25.3032 9.25008 24.9998V20.7498H6.66675C6.25253 20.7498 5.91675 20.4141 5.91675 19.9998V6.6665C5.91675 6.25229 6.25253 5.9165 6.66675 5.9165H19.0008C19.0003 5.94424 19.0001 5.97203 19.0001 5.99988C19.0001 6.49192 19.0712 6.96737 19.2036 7.4165H7.41675V19.2498H10.0001C10.4143 19.2498 10.7501 19.5856 10.7501 19.9998V23.1892L14.4698 19.4695C14.6104 19.3289 14.8012 19.2498 15.0001 19.2498H24.2501V10.9937C24.7755 10.9679 25.2796 10.8609 25.7501 10.6851ZM30.0001 14.2498C29.5859 14.2498 29.2501 14.5856 29.2501 14.9998C29.2501 15.4141 29.5859 15.7498 30.0001 15.7498H32.5834V27.5832H30.0001C29.5859 27.5832 29.2501 27.919 29.2501 28.3332V31.5225L25.5304 27.8028C25.3898 27.6622 25.199 27.5832 25.0001 27.5832H15.0001C14.5859 27.5832 14.2501 27.919 14.2501 28.3332C14.2501 28.7474 14.5859 29.0832 15.0001 29.0832H24.6894L29.4698 33.8635C29.6842 34.078 30.0068 34.1422 30.2871 34.0261C30.5673 33.91 30.7501 33.6365 30.7501 33.3332V29.0832H33.3334C33.7476 29.0832 34.0834 28.7474 34.0834 28.3332V14.9998C34.0834 14.5856 33.7476 14.2498 33.3334 14.2498H30.0001Z" fill="black"/>
<circle cx="24" cy="6" r="4" fill="#71D97E"/>
</svg>
